<?xml version="1.0" encoding="UTF-8"?>
<!DOCTYPE svg PUBLIC "-//W3C//DTD SVG 1.1//EN" "http://www.w3.org/Graphics/SVG/1.1/DTD/svg11.dtd">
<!-- Creator: CorelDRAW X6 -->
<svg xmlns="http://www.w3.org/2000/svg" xml:space="preserve" width="262px" height="38px" version="1.1" style="shape-rendering:geometricPrecision; text-rendering:geometricPrecision; image-rendering:optimizeQuality; fill-rule:evenodd; clip-rule:evenodd"
viewBox="0 0 9250 1349"
 xmlns:xlink="http://www.w3.org/1999/xlink">
 <defs>
  <style type="text/css">
   <![CDATA[
    .str0 {stroke:#E4E3D9;stroke-width:2.66}
    .str2 {stroke:white;stroke-width:35.28;stroke-linecap:round;stroke-linejoin:round}
    .str3 {stroke:#E4E3D9;stroke-width:35.28}
    .str1 {stroke:white;stroke-width:35.28;stroke-linecap:round;stroke-linejoin:round;stroke-dasharray:84.660000 84.660000}
    .fil9 {fill:none;fill-rule:nonzero}
    .fil28 {fill:#484847;fill-rule:nonzero}
    .fil57 {fill:#6F7073;fill-rule:nonzero}
    .fil10 {fill:#86B821;fill-rule:nonzero}
    .fil8 {fill:#AF0539;fill-rule:nonzero}
    .fil56 {fill:#BD202B;fill-rule:nonzero}
    .fil16 {fill:#C9CDCF;fill-rule:nonzero}
    .fil27 {fill:#D9DADA;fill-rule:nonzero}
    .fil7 {fill:#E4E3D9;fill-rule:nonzero}
    .fil21 {fill:#ED1D24;fill-rule:nonzero}
    .fil11 {fill:white;fill-rule:nonzero}
    .fil24 {fill:#AF0539;fill-rule:nonzero}
    .fil23 {fill:#E4E3D9;fill-rule:nonzero}
    .fil35 {fill:url(#id0)}
    .fil49 {fill:url(#id1)}
    .fil44 {fill:url(#id2)}
    .fil6 {fill:url(#id3)}
    .fil43 {fill:url(#id4)}
    .fil39 {fill:url(#id5)}
    .fil38 {fill:url(#id6)}
    .fil5 {fill:url(#id7)}
    .fil50 {fill:url(#id8)}
    .fil29 {fill:url(#id9)}
    .fil51 {fill:url(#id10)}
    .fil54 {fill:url(#id11)}
    .fil30 {fill:url(#id12)}
    .fil53 {fill:url(#id13)}
    .fil1 {fill:url(#id14)}
    .fil4 {fill:url(#id15)}
    .fil31 {fill:url(#id16)}
    .fil22 {fill:url(#id17)}
    .fil45 {fill:url(#id18)}
    .fil40 {fill:url(#id19)}
    .fil48 {fill:url(#id20)}
    .fil36 {fill:url(#id21)}
    .fil37 {fill:url(#id22)}
    .fil2 {fill:url(#id23)}
    .fil0 {fill:url(#id24)}
    .fil14 {fill:url(#id25)}
    .fil25 {fill:url(#id26)}
    .fil34 {fill:url(#id27)}
    .fil42 {fill:url(#id28)}
    .fil47 {fill:url(#id29)}
    .fil52 {fill:url(#id30)}
    .fil13 {fill:url(#id31)}
    .fil41 {fill:url(#id32)}
    .fil3 {fill:url(#id33)}
    .fil12 {fill:url(#id34)}
    .fil33 {fill:url(#id35)}
    .fil32 {fill:url(#id36)}
    .fil46 {fill:url(#id37)}
    .fil55 {fill:url(#id38)}
    .fil26 {fill:url(#id39)}
    .fil20 {fill:url(#id40)}
    .fil19 {fill:url(#id41)}
    .fil17 {fill:url(#id42)}
    .fil18 {fill:url(#id43)}
    .fil15 {fill:url(#id44)}
   ]]>
  </style>
  <linearGradient id="id0" gradientUnits="userSpaceOnUse" x1="20999.7" y1="-7783.7" x2="20999.7" y2="-8053.74">
   <stop offset="0" style="stop-color:#CDCECE"/>
   <stop offset="0.34902" style="stop-color:#40403F"/>
   <stop offset="0.580392" style="stop-color:white"/>
   <stop offset="1" style="stop-color:#313130"/>
  </linearGradient>
  <linearGradient id="id1" gradientUnits="userSpaceOnUse" xlink:href="#id0" x1="20999.7" y1="-8393.47" x2="20999.7" y2="-8664.75">
  </linearGradient>
  <linearGradient id="id2" gradientUnits="userSpaceOnUse" xlink:href="#id0" x1="21667.1" y1="-3189.62" x2="21667.1" y2="-3459.66">
  </linearGradient>
  <linearGradient id="id3" gradientUnits="userSpaceOnUse" xlink:href="#id0" x1="21667.1" y1="-3798.77" x2="21667.1" y2="-4068.81">
  </linearGradient>
  <linearGradient id="id4" gradientUnits="userSpaceOnUse" xlink:href="#id0" x1="24405.8" y1="-7796.66" x2="24405.8" y2="-8066.74">
  </linearGradient>
  <linearGradient id="id5" gradientUnits="userSpaceOnUse" xlink:href="#id0" x1="24405.8" y1="-8407.12" x2="24405.8" y2="-8677.2">
  </linearGradient>
  <linearGradient id="id6" gradientUnits="userSpaceOnUse" xlink:href="#id0" x1="24651.3" y1="-9741.84" x2="24651.3" y2="-10080.5">
  </linearGradient>
  <linearGradient id="id7" gradientUnits="userSpaceOnUse" xlink:href="#id0" x1="24651.3" y1="-10475.7" x2="24651.3" y2="-10813.5">
  </linearGradient>
  <linearGradient id="id8" gradientUnits="userSpaceOnUse" xlink:href="#id0" x1="25075.2" y1="-3807.45" x2="25075.2" y2="-4078.33">
  </linearGradient>
  <linearGradient id="id9" gradientUnits="userSpaceOnUse" xlink:href="#id0" x1="25080.5" y1="-3198.09" x2="25080.5" y2="-3468.97">
  </linearGradient>
  <linearGradient id="id10" gradientUnits="userSpaceOnUse" xlink:href="#id0" x1="25458" y1="-4208.32" x2="25458" y2="-4546.22">
  </linearGradient>
  <linearGradient id="id11" gradientUnits="userSpaceOnUse" xlink:href="#id0" x1="25458" y1="-4942.25" x2="25458" y2="-5280.57">
  </linearGradient>
  <linearGradient id="id12" gradientUnits="userSpaceOnUse" xlink:href="#id0" x1="54095.6" y1="-19318.3" x2="54095.6" y2="-20013.2">
  </linearGradient>
  <linearGradient id="id13" gradientUnits="userSpaceOnUse" xlink:href="#id0" x1="54095.6" y1="-20889.5" x2="54095.6" y2="-21587">
  </linearGradient>
  <linearGradient id="id14" gradientUnits="userSpaceOnUse" xlink:href="#id0" x1="55813.5" y1="-7494.62" x2="55813.5" y2="-8189.52">
  </linearGradient>
  <linearGradient id="id15" gradientUnits="userSpaceOnUse" xlink:href="#id0" x1="55813.5" y1="-9062.01" x2="55813.5" y2="-9756.91">
  </linearGradient>
  <linearGradient id="id16" gradientUnits="userSpaceOnUse" xlink:href="#id0" x1="62862.9" y1="-19351.7" x2="62862.9" y2="-20046.6">
  </linearGradient>
  <linearGradient id="id17" gradientUnits="userSpaceOnUse" xlink:href="#id0" x1="62862.9" y1="-20924.3" x2="62862.9" y2="-21619.2">
  </linearGradient>
  <linearGradient id="id18" gradientUnits="userSpaceOnUse" xlink:href="#id0" x1="63493.5" y1="-24446.4" x2="63493.5" y2="-25318.9">
  </linearGradient>
  <linearGradient id="id19" gradientUnits="userSpaceOnUse" xlink:href="#id0" x1="63493.5" y1="-26334.2" x2="63493.5" y2="-27204.1">
  </linearGradient>
  <linearGradient id="id20" gradientUnits="userSpaceOnUse" xlink:href="#id0" x1="64584.7" y1="-9086.46" x2="64584.7" y2="-9783.94">
  </linearGradient>
  <linearGradient id="id21" gradientUnits="userSpaceOnUse" xlink:href="#id0" x1="64598.9" y1="-7519.07" x2="64598.9" y2="-8213.97">
  </linearGradient>
  <linearGradient id="id22" gradientUnits="userSpaceOnUse" xlink:href="#id0" x1="65570.5" y1="-10204.7" x2="65570.5" y2="-11074.7">
  </linearGradient>
  <linearGradient id="id23" gradientUnits="userSpaceOnUse" xlink:href="#id0" x1="65570.5" y1="-12093.9" x2="65570.5" y2="-12963.8">
  </linearGradient>
  <linearGradient id="id24" gradientUnits="userSpaceOnUse" x1="55350.8" y1="-22903.2" x2="55350.8" y2="-22247.6">
   <stop offset="0" style="stop-color:black"/>
   <stop offset="0.470588" style="stop-color:#787878"/>
   <stop offset="1" style="stop-color:black"/>
  </linearGradient>
  <linearGradient id="id25" gradientUnits="userSpaceOnUse" xlink:href="#id24" x1="55410.3" y1="-21480.1" x2="55410.3" y2="-20824.1">
  </linearGradient>
  <linearGradient id="id26" gradientUnits="userSpaceOnUse" xlink:href="#id24" x1="57036.9" y1="-10561" x2="57036.9" y2="-9905.38">
  </linearGradient>
  <linearGradient id="id27" gradientUnits="userSpaceOnUse" xlink:href="#id24" x1="57098.4" y1="-12026.1" x2="57098.4" y2="-11370.1">
  </linearGradient>
  <linearGradient id="id28" gradientUnits="userSpaceOnUse" xlink:href="#id24" x1="143439" y1="-57373" x2="143439" y2="-55723.2">
  </linearGradient>
  <linearGradient id="id29" gradientUnits="userSpaceOnUse" xlink:href="#id24" x1="143588" y1="-53794.2" x2="143588" y2="-52144.4">
  </linearGradient>
  <linearGradient id="id30" gradientUnits="userSpaceOnUse" xlink:href="#id24" x1="147682" y1="-26331.1" x2="147682" y2="-24683.8">
  </linearGradient>
  <linearGradient id="id31" gradientUnits="userSpaceOnUse" xlink:href="#id24" x1="147836" y1="-30018" x2="147836" y2="-28368.2">
  </linearGradient>
  <linearGradient id="id32" gradientUnits="userSpaceOnUse" x1="25068.8" y1="-8387.68" x2="25068.8" y2="-8102.72">
   <stop offset="0" style="stop-color:black"/>
   <stop offset="0.470588" style="stop-color:#898988"/>
   <stop offset="1" style="stop-color:black"/>
  </linearGradient>
  <linearGradient id="id33" gradientUnits="userSpaceOnUse" xlink:href="#id32" x1="25068.8" y1="-9017.58" x2="25068.8" y2="-8732.62">
  </linearGradient>
  <linearGradient id="id34" gradientUnits="userSpaceOnUse" xlink:href="#id32" x1="25760" y1="-3641.83" x2="25760" y2="-3357.31">
  </linearGradient>
  <linearGradient id="id35" gradientUnits="userSpaceOnUse" xlink:href="#id32" x1="25760" y1="-4271.66" x2="25760" y2="-3987.14">
  </linearGradient>
  <linearGradient id="id36" gradientUnits="userSpaceOnUse" xlink:href="#id32" x1="64569.3" y1="-20892.1" x2="64569.3" y2="-20158.6">
  </linearGradient>
  <linearGradient id="id37" gradientUnits="userSpaceOnUse" xlink:href="#id32" x1="64569.3" y1="-22513.5" x2="64569.3" y2="-21780">
  </linearGradient>
  <linearGradient id="id38" gradientUnits="userSpaceOnUse" xlink:href="#id32" x1="66347.7" y1="-8677.23" x2="66347.7" y2="-7946.31">
  </linearGradient>
  <linearGradient id="id39" gradientUnits="userSpaceOnUse" xlink:href="#id32" x1="66347.7" y1="-10298.7" x2="66347.7" y2="-9567.75">
  </linearGradient>
  <radialGradient id="id40" gradientUnits="objectBoundingBox" cx="52.0001%" cy="50%" r="49%" fx="52.0001%" fy="50%">
   <stop offset="0" style="stop-color:#DFE5E8"/>
   <stop offset="0.0588235" style="stop-color:#DFE5E8"/>
   <stop offset="0.839216" style="stop-color:white"/>
   <stop offset="1" style="stop-color:white"/>
  </radialGradient>
  <radialGradient id="id41" gradientUnits="objectBoundingBox" xlink:href="#id40" cx="52%" cy="50%" r="49%" fx="52%" fy="50%">
  </radialGradient>
  <radialGradient id="id42" gradientUnits="objectBoundingBox" xlink:href="#id40" cx="52.0001%" cy="50%" r="49%" fx="52.0001%" fy="50%">
  </radialGradient>
  <radialGradient id="id43" gradientUnits="objectBoundingBox" xlink:href="#id40" cx="50%" cy="48%" r="46%" fx="50%" fy="48%">
  </radialGradient>
  <radialGradient id="id44" gradientUnits="objectBoundingBox" xlink:href="#id40" cx="50%" cy="48%" r="45%" fx="50%" fy="48%">
  </radialGradient>
 </defs>
<symbol id="Fm9-200-0" viewBox="55165 -22903 371 656">
 <polygon class="fil0" points="55537,-22248 55537,-22903 55165,-22903 55165,-22248 "/>
</symbol>
<symbol id="Символ11" viewBox="51158 -8190 9312 695">
 <polygon class="fil1" points="51158,-7495 60469,-7495 60469,-8190 51158,-8190 "/>
</symbol>
<symbol id="Символ20" viewBox="60915 -12964 9312 870">
 <polygon class="fil2" points="60915,-12094 70226,-12094 70226,-12964 60915,-12964 "/>
</symbol>
<symbol id="Fm8-198-0" viewBox="23260 -9018 3618 285">
 <polygon class="fil3" points="23260,-8733 26878,-8733 26878,-9018 23260,-9018 "/>
</symbol>
<symbol id="Символ8" viewBox="51158 -9757 9312 695">
 <polygon class="fil4" points="60469,-9757 51158,-9757 51158,-9062 60469,-9062 "/>
</symbol>
<symbol id="Fm10-162-0" viewBox="22842 -10814 3618 338">
 <polygon class="fil5" points="22842,-10476 26460,-10476 26460,-10814 22842,-10814 "/>
</symbol>
<symbol id="Fm17-176-0" viewBox="19858 -4069 3618 270">
 <polygon class="fil6" points="23476,-4069 19858,-4069 19858,-3799 23476,-3799 "/>
</symbol>
<symbol id="Символ5" viewBox="3910 -1714 2133 1650">
 <polygon class="fil7" points="3910,-64 6043,-64 6043,-184 3910,-184 "/>
 <polygon class="fil7" points="5982,-618 5962,-624 5962,-626 5985,-632 5985,-630 5965,-625 5985,-619 5985,-617 5965,-612 5985,-606 5985,-604 5962,-610 5962,-613 "/>
 <polygon class="fil7" points="5982,-588 5962,-594 5962,-596 5985,-603 5985,-600 5965,-595 5985,-589 5985,-587 5965,-582 5985,-576 5985,-574 5962,-581 5962,-583 "/>
 <polygon class="fil7" points="5982,-558 5962,-564 5962,-566 5985,-573 5985,-571 5965,-565 5985,-559 5985,-558 5965,-552 5985,-546 5985,-544 5962,-551 5962,-553 "/>
 <path class="fil7" d="M5965 -542c0,1 -1,2 -2,2 -1,0 -2,-1 -2,-2 0,-1 1,-2 2,-2 1,0 2,1 2,2z"/>
 <path class="fil7" d="M5986 -525c0,7 -5,12 -12,12 -7,0 -12,-5 -12,-12 0,-7 5,-12 12,-12 7,0 12,5 12,12zm-4 0c0,-5 -4,-8 -8,-8 -5,0 -8,3 -8,8 0,5 4,8 8,8 5,0 8,-3 8,-8z"/>
 <polygon class="fil7" points="5979,-506 5962,-506 5962,-510 5985,-510 5985,-506 5969,-494 5985,-494 5985,-490 5962,-490 5962,-494 "/>
 <polygon class="fil7" points="5982,-479 5982,-486 5985,-486 5985,-468 5982,-468 5982,-475 5962,-475 5962,-479 "/>
 <path class="fil7" d="M5967 -453l0 -11 -4 -2 0 -4 23 9 0 5 -23 9 0 -4 4 -2 0 0zm4 -10l0 9 12 -4 -12 -4z"/>
 <path class="fil7" d="M5971 -436l0 -4 -9 0 0 -4 23 0 0 10c0,5 -3,7 -7,7 -4,0 -6,-3 -7,-5l-9 6 0 -5 9 -5 0 0zm11 2l0 -6 -7 0 0 6c0,2 1,4 4,4 2,0 4,-2 4,-4l0 0z"/>
 <polygon class="fil7" points="5985,-419 5962,-419 5962,-423 5985,-423 "/>
 <path class="fil7" d="M5986 -403c0,7 -5,12 -12,12 -7,0 -12,-5 -12,-12 0,-7 5,-12 12,-12 7,0 12,5 12,12zm-4 0c0,-5 -4,-8 -8,-8 -5,0 -8,3 -8,8 0,5 4,8 8,8 5,0 8,-3 8,-8z"/>
 <polygon class="fil7" points="5972,-381 5970,-383 5962,-383 5962,-387 5985,-387 5985,-383 5974,-383 5985,-374 5985,-369 5975,-379 5962,-369 5962,-374 "/>
 <polygon class="fil7" points="5979,-362 5962,-362 5962,-366 5985,-366 5985,-362 5969,-350 5985,-350 5985,-346 5962,-346 5962,-350 "/>
 <polygon class="fil7" points="5985,-337 5962,-337 5962,-341 5985,-341 "/>
 <polygon class="fil7" points="5985,-332 5985,-317 5982,-317 5982,-328 5976,-328 5976,-317 5972,-317 5972,-328 5962,-328 5962,-332 "/>
 <polygon class="fil7" points="5985,-313 5985,-297 5982,-297 5982,-309 5976,-309 5976,-298 5972,-298 5972,-309 5966,-309 5966,-297 5962,-297 5962,-313 "/>
 <path class="fil7" d="M5965 -292c0,1 -1,2 -2,2 -1,0 -2,-1 -2,-2 0,-1 1,-2 2,-2 1,0 2,1 2,2z"/>
 <path class="fil7" d="M5974 -286c7,0 12,5 12,12 0,4 -2,6 -4,8l-1 -2c2,-1 3,-4 3,-7 0,-5 -4,-10 -10,-10 -6,0 -10,4 -10,10 0,3 1,5 3,7l-1 2c-2,-2 -4,-5 -4,-8 0,-6 5,-12 12,-12l0 0z"/>
 <path class="fil7" d="M5986 -252c0,7 -5,11 -12,11 -7,0 -12,-4 -12,-11 0,-7 5,-11 12,-11 7,0 12,4 12,11zm-2 0c0,-6 -4,-9 -10,-9 -6,0 -10,3 -10,9 0,6 4,9 10,9 6,0 10,-4 10,-9z"/>
 <polygon class="fil7" points="5983,-216 5962,-225 5962,-226 5983,-234 5962,-234 5962,-236 5985,-236 5985,-233 5966,-225 5985,-217 5985,-214 5962,-214 5962,-216 "/>
 <path class="fil7" d="M5996 -928l2 -2c-7,-7 -16,-11 -27,-11 -10,0 -20,4 -27,11 -7,7 -11,16 -11,27 0,10 4,20 11,27 7,7 16,11 27,11 10,0 20,-4 27,-11 7,-7 11,-16 11,-27 0,-10 -4,-20 -11,-27l-2 2 -2 2c6,6 10,14 10,24 0,9 -4,18 -10,24 -6,6 -14,10 -24,10 -9,0 -18,-4 -24,-10 -6,-6 -10,-14 -10,-24 0,-9 4,-18 10,-24 6,-6 14,-10 24,-10 9,0 18,4 24,10l2 -2z"/>
 <polygon class="fil7" points="5960,-921 5956,-919 5956,-923 5965,-927 5965,-905 5960,-905 "/>
 <path class="fil7" d="M5983 -916c2,1 4,3 4,5 0,4 -3,6 -8,6 -5,0 -8,-3 -8,-6 0,-2 1,-4 4,-5l0 0c-2,-1 -3,-2 -3,-4 0,-3 3,-6 7,-6 4,0 7,3 7,6 0,2 -1,4 -3,4l0 0zm-1 5c0,-2 -1,-3 -3,-3 -2,0 -3,1 -3,3 0,2 1,3 3,3 2,0 3,-1 3,-3zm0 -9c0,-1 -1,-3 -3,-3 -2,0 -3,1 -3,3 0,2 1,3 3,3 2,0 3,-1 3,-3z"/>
 <path class="fil7" d="M5967 -891c2,1 4,3 4,5 0,4 -3,6 -8,6 -5,0 -8,-3 -8,-6 0,-2 1,-4 4,-5l0 0c-2,-1 -3,-2 -3,-4 0,-3 3,-6 7,-6 4,0 7,3 7,6 0,2 -1,4 -3,4l0 0zm-1 5c0,-2 -1,-3 -3,-3 -2,0 -3,1 -3,3 0,2 1,3 3,3 2,0 3,-1 3,-3zm0 -9c0,-1 -1,-3 -3,-3 -2,0 -3,1 -3,3 0,2 1,3 3,3 2,0 3,-1 3,-3z"/>
 <path class="fil7" d="M5976 -880l5 -8 0 0c-1,0 -1,0 -2,0 -3,0 -7,-2 -7,-7 0,-4 3,-7 8,-7 4,0 8,3 8,7 0,2 -1,5 -3,7l-5 7 -5 0 0 0zm8 -15c0,-2 -1,-3 -3,-3 -2,0 -3,1 -3,3 0,2 1,3 3,3 2,0 3,-1 3,-3l0 0z"/>
 <path class="fil8" d="M4015 -126l15 0 0 -3 -9 0c6,-4 9,-8 9,-12 0,-4 -4,-7 -8,-7 -3,0 -6,1 -8,3l2 2c1,-2 3,-3 6,-3 2,0 4,1 4,3 0,3 -3,6 -11,12l0 3 0 0zm19 -11c0,5 3,11 9,11 6,0 9,-6 9,-11 0,-5 -3,-11 -9,-11 -6,0 -9,6 -9,11zm13 0c0,4 -1,8 -5,8 -3,0 -5,-4 -5,-8 0,-4 1,-8 5,-8 3,0 5,4 5,8zm7 11l15 0 0 -3 -9 0c6,-4 9,-8 9,-12 0,-4 -4,-7 -8,-7 -3,0 -6,1 -8,3l2 2c1,-2 3,-3 6,-3 2,0 4,1 4,3 0,3 -3,6 -11,12l0 3 0 0zm19 -11c0,5 3,11 9,11 6,0 9,-6 9,-11 0,-5 -3,-11 -9,-11 -6,0 -9,6 -9,11zm13 0c0,4 -1,8 -5,8 -3,0 -5,-4 -5,-8 0,-4 1,-8 5,-8 3,0 5,4 5,8zm6 4l8 0 0 -3 -8 0 0 3zm10 6l15 0 0 -3 -9 0c6,-4 9,-8 9,-12 0,-4 -4,-7 -8,-7 -3,0 -6,1 -8,3l2 2c1,-2 3,-3 6,-3 2,0 4,1 4,3 0,3 -3,6 -11,12l0 3 0 0zm19 -11c0,5 3,11 9,11 6,0 9,-6 9,-11 0,-5 -3,-11 -9,-11 -6,0 -9,6 -9,11zm13 0c0,4 -1,8 -5,8 -3,0 -5,-4 -5,-8 0,-4 1,-8 5,-8 3,0 5,4 5,8zm7 11l15 0 0 -3 -9 0c6,-4 9,-8 9,-12 0,-4 -4,-7 -8,-7 -3,0 -6,1 -8,3l2 2c1,-2 3,-3 6,-3 2,0 4,1 4,3 0,3 -3,6 -11,12l0 3 0 0zm24 0l4 0 0 -21 -3 0 -6 6 2 2 3 -4 0 16 0 0z"/>
 <path class="fil8" d="M4181 -135c0,6 4,9 10,9 3,0 5,-1 7,-3l-1 -1c-2,2 -4,2 -6,2 -5,0 -8,-3 -8,-8 0,-7 5,-11 10,-11 3,0 5,1 7,4l2 -1c-2,-3 -5,-5 -8,-5 -6,0 -12,5 -12,13l0 0zm36 9l2 0 -4 -21 -2 0 -13 21 2 0 3 -5 11 0 1 5zm-4 -19l2 13 -10 0 8 -13 0 0zm12 19l2 0 4 -20 7 0 0 -2 -16 0 0 2 7 0 -4 20 0 0zm26 0l2 0 -4 -21 -2 0 -13 21 2 0 3 -5 11 0 1 5zm-4 -19l2 13 -10 0 8 -13 0 0zm9 19l12 0 0 -2 -10 0 4 -20 -2 0 -5 21 0 0zm17 -9c0,6 4,9 10,9 6,0 12,-6 12,-13 0,-6 -4,-9 -10,-9 -6,0 -12,6 -12,13l0 0zm19 -4c0,6 -5,11 -10,11 -4,0 -8,-3 -8,-8 0,-6 5,-11 10,-11 4,0 8,3 8,8l0 0zm5 4c0,5 4,9 10,9 3,0 6,-1 8,-3l2 -8 -10 0 0 2 8 0 -1 5c-1,1 -3,3 -6,3 -5,0 -8,-3 -8,-8 0,-6 5,-11 10,-11 3,0 6,1 7,4l2 -1c-2,-3 -4,-4 -8,-4 -6,0 -12,5 -12,13l0 0zm490 9l2 0 4 -20 7 0 0 -2 -16 0 0 2 7 0 -4 20 0 0zm28 0l2 0 5 -21 -2 0 -2 10 -14 0 2 -10 -2 0 -5 21 2 0 2 -10 14 0 -2 10zm7 0l14 0 0 -2 -12 0 2 -8 11 0 0 -2 -11 0 2 -8 12 0 0 -2 -14 0 -5 21 0 0z"/>
 <path class="fil8" d="M4848 -126l15 0 1 -3 -11 0 1 -6 11 0 1 -3 -11 0 1 -6 11 0 1 -3 -15 0 -5 21 0 0zm33 0l2 0 2 -9 11 -12 -2 0 -10 10 -5 -10 -2 0 6 12 -2 9 0 0zm14 -9c0,6 4,9 10,9 6,0 12,-6 12,-13 0,-6 -4,-9 -10,-9 -6,0 -12,6 -12,13l0 0zm19 -4c0,6 -5,11 -10,11 -4,0 -8,-3 -8,-8 0,-6 5,-11 10,-11 4,0 8,3 8,8l0 0zm5 6c0,4 3,7 8,7 5,0 8,-3 9,-9l3 -13 -2 0 -3 13c-1,4 -3,7 -7,7 -4,0 -6,-2 -6,-6 0,-1 0,-1 0,-1l3 -13 -2 0 -3 13c0,0 0,1 0,2l0 0zm44 7l2 0 5 -21 -2 0 -4 18 -9 -18 -2 0 -5 21 2 0 4 -19 9 19 0 0zm7 0l14 0 0 -2 -12 0 2 -8 11 0 0 -2 -11 0 2 -8 12 0 0 -2 -14 0 -5 21 0 0zm18 0l14 0 0 -2 -12 0 2 -8 11 0 0 -2 -11 0 2 -8 12 0 0 -2 -14 0 -5 21 0 0zm29 -21l-7 0 -5 21 7 0c9,0 13,-6 13,-12 0,-5 -4,-9 -9,-9zm-4 20l-5 0 4 -18 5 0c4,0 7,3 7,7 0,6 -4,10 -11,10zm48 2l2 0 11 -21 -2 0 -9 19 -1 -19 -2 0 -9 19 -1 -19 -2 0 1 21 2 0 9 -18 1 18zm27 0l2 0 5 -21 -2 0 -2 10 -14 0 2 -10 -2 0 -5 21 2 0 2 -10 14 0 -2 10zm7 0l14 0 0 -2 -12 0 2 -8 11 0 0 -2 -11 0 2 -8 12 0 0 -2 -14 0 -5 21 0 0zm33 0l2 0 5 -21 -2 0 -4 18 -9 -18 -2 0 -5 21 2 0 4 -19 9 19 0 0zm22 0l2 0 2 -9 11 -12 -2 0 -10 10 -5 -10 -2 0 6 12 -2 9 0 0zm14 -9c0,6 4,9 10,9 6,0 12,-6 12,-13 0,-6 -4,-9 -10,-9 -6,0 -12,6 -12,13l0 0zm19 -4c0,6 -5,11 -10,11 -4,0 -8,-3 -8,-8 0,-6 5,-11 10,-11 4,0 8,3 8,8l0 0zm5 6c0,4 3,7 8,7 5,0 8,-3 9,-9l3 -13 -2 0 -3 13c-1,4 -3,7 -7,7 -4,0 -6,-2 -6,-6 0,-1 0,-1 0,-1l3 -13 -2 0 -3 13c0,0 0,1 0,2l0 0zm44 7l2 0 5 -21 -2 0 -4 18 -9 -18 -2 0 -5 21 2 0 4 -19 9 19 0 0zm7 0l14 0 0 -2 -12 0 2 -8 11 0 0 -2 -11 0 2 -8 12 0 0 -2 -14 0 -5 21 0 0zm18 0l14 0 0 -2 -12 0 2 -8 11 0 0 -2 -11 0 2 -8 12 0 0 -2 -14 0 -5 21 0 0zm29 -21l-7 0 -5 21 7 0c9,0 13,-6 13,-12 0,-5 -4,-9 -9,-9zm-4 20l-5 0 4 -18 5 0c4,0 7,3 7,7 0,6 -4,10 -11,10zm39 2l2 0 -4 -21 -2 0 -13 21 2 0 3 -5 11 0 1 5zm-4 -19l2 13 -10 0 8 -13 0 0zm16 19l15 0 1 -3 -11 0 1 -6 11 0 1 -3 -11 0 1 -6 11 0 1 -3 -15 0 -5 21 0 0zm27 -8c4,0 7,-3 7,-7 0,-4 -3,-7 -7,-7 -4,0 -7,3 -7,7 0,4 3,7 7,7l0 0zm0 -13c3,0 6,3 6,6 0,3 -3,6 -6,6 -3,0 -6,-3 -6,-6 0,-3 3,-6 6,-6zm1 10l1 0 -1 -3c1,0 3,-1 3,-3 0,-1 -1,-2 -2,-2l-3 0 -2 8 1 0 1 -3 2 0 1 3 0 0zm0 -7c1,0 1,0 1,1 0,1 -1,2 -2,2l-2 0 1 -3 2 0 0 0z"/>
 <polyline class="fil9 str0" points="6015,-1713 5909,-1648 5909,-184 "/>
</symbol>
<symbol id="Символ13" viewBox="10043 -2405 9312 412">
 <polygon class="fil10" points="10043,-1993 14961,-1993 14961,-2405 10043,-2405 "/>
 <polygon class="fil10" points="14961,-1993 19354,-1993 19354,-2405 14961,-2405 "/>
 <path class="fil11" d="M10611 -2158l0 31 46 0 0 28 -46 0 0 59 -31 0 0 -147 85 0 0 28 -54 0 0 0 0 0 0 0 0 0zm72 118l0 -147 85 0 0 28 -54 0 0 31 46 0 0 28 -46 0 0 31 54 0 0 28 -85 0 0 0 0 0 0 0 0 0 0 0zm106 0l0 -147 85 0 0 28 -54 0 0 31 46 0 0 28 -46 0 0 31 54 0 0 28 -85 0 0 0 0 0 0 0 0 0 0 0zm165 -85c0,-5 0,-10 0,-13 0,-5 -3,-8 -3,-10 -3,-3 -3,-5 -8,-8 -3,-3 -8,-3 -10,-3l-13 0 0 90 13 0c8,0 13,-3 18,-8 3,-5 5,-10 5,-18l0 -36 0 0 -3 0 0 0 0 0 0 5zm-13 -62c10,0 18,3 26,5 8,5 13,10 18,18 3,5 3,13 3,18 0,8 0,18 0,23 0,13 0,23 0,33 0,10 -3,18 -5,23 -3,5 -5,10 -8,13 -3,3 -8,5 -10,8 -5,3 -8,3 -13,5 -5,0 -10,3 -13,3l-44 0 0 -147 46 0 0 0 0 -3 0 0 0 0 0 0zm67 147l0 -147 85 0 0 28 -54 0 0 31 46 0 0 28 -46 0 0 31 54 0 0 28 -85 0 0 0 0 0 0 0 0 0 0 0zm167 0l-18 -57 -13 0 0 57 -31 0 0 -147 46 0c8,0 13,0 18,3 5,3 10,5 13,8 5,3 8,8 10,13 3,5 5,13 5,18 0,10 -3,18 -5,23 -5,8 -10,13 -18,18l23 64 -33 0 0 0 0 0 0 0 0 0 3 0zm3 -106c0,-5 -3,-10 -5,-13 -3,-3 -8,-5 -13,-5l-18 0 0 33 18 0c5,0 10,-3 13,-5 3,-3 5,-8 5,-13l0 3 0 0 0 0 0 0zm190 67c-3,13 -8,21 -18,26 -10,8 -18,10 -31,10 -10,0 -18,-3 -21,-5 -8,-3 -13,-8 -13,-13 -5,-5 -8,-10 -10,-18 -3,-8 -3,-13 -3,-18l0 -51c0,-5 0,-13 3,-18 3,-5 5,-10 8,-13 5,-5 10,-10 13,-13 8,-3 13,-5 21,-5 8,0 13,0 18,3 5,3 10,5 13,8 5,3 8,8 10,13 3,5 5,10 5,13l-28 10c0,-3 0,-3 -3,-5 0,-3 -3,-5 -3,-5 -3,-3 -3,-3 -5,-5 -3,0 -5,-3 -8,-3 -3,0 -5,0 -8,3 -3,0 -5,3 -5,5 -3,3 -3,3 -3,5 0,3 0,5 0,5l0 54c0,5 0,10 5,13 3,5 8,5 13,5 5,0 8,-3 13,-5 3,-3 5,-8 5,-13l28 10 0 0 0 5 0 0 0 0 3 3zm108 -13c0,8 0,13 -3,18 -3,5 -5,13 -10,13 -5,5 -10,8 -13,10 -5,3 -13,3 -18,3 -10,0 -18,-3 -21,-5 -8,-3 -13,-8 -13,-13 -5,-5 -8,-10 -10,-18 -3,-8 -3,-13 -3,-18l0 -51c0,-5 0,-13 3,-18 3,-5 5,-10 10,-13 5,-5 10,-10 13,-13 8,-3 13,-5 21,-5 8,0 13,3 21,5 8,3 13,8 13,13 5,5 8,10 10,13 3,5 3,13 3,18l0 54 0 0 -3 5 0 0 0 3zm-31 -57c0,-3 0,-3 0,-5 0,-3 -3,-5 -3,-5 -3,-3 -3,-3 -5,-5 -3,0 -5,-3 -8,-3 -3,0 -5,0 -8,3 -3,0 -5,3 -5,5 -3,3 -3,3 -3,5 0,3 0,5 0,5l0 54c0,5 3,10 5,13 3,5 8,5 13,5 5,0 8,-3 13,-5 3,-3 5,-8 5,-13l0 -57 0 0 -5 0 0 0 0 3zm129 103l-26 -49 -18 -31 0 0 0 80 -31 0 0 -147 26 0 23 44 18 36 0 0 0 -77 31 0 0 147 -26 0 0 0 0 -3 0 0 0 0 3 0zm142 -36c-3,13 -8,21 -18,26 -10,8 -18,10 -31,10 -10,0 -18,-3 -21,-5 -8,-3 -13,-8 -13,-13 -5,-5 -8,-10 -10,-18 -3,-8 -3,-13 -3,-18l0 -51c0,-5 0,-13 3,-18 3,-5 5,-10 8,-13 5,-5 10,-10 13,-13 8,-3 13,-5 21,-5 8,0 13,0 18,3 5,3 10,5 13,8 5,3 8,8 10,13 3,5 5,10 5,13l-28 10c0,-3 0,-3 -3,-5 0,-3 -3,-5 -3,-5 -3,-3 -3,-3 -5,-5 -3,0 -5,-3 -8,-3 -3,0 -5,0 -8,3 -3,0 -5,3 -5,5 -3,3 -3,3 -3,5 0,3 0,5 0,5l0 54c0,5 0,10 5,13 3,5 8,5 13,5 5,0 8,-3 13,-5 3,-3 5,-8 5,-13l28 10 0 0 0 5 0 0 0 0 3 3zm18 36l0 -147 85 0 0 28 -54 0 0 31 46 0 0 28 -46 0 0 31 54 0 0 28 -85 0 0 0 0 0 0 0 0 0 0 0zm196 -98c0,8 0,13 -3,18 -3,5 -5,10 -10,13 -5,5 -10,8 -13,10 -5,3 -13,3 -18,3l-18 0 0 54 -31 0 0 -147 46 0c8,0 13,0 18,3 5,3 13,5 13,10 5,5 8,10 10,13 3,5 3,13 3,21l0 0 0 0 3 3zm-31 0c0,-8 -3,-13 -5,-13 -3,-3 -8,-5 -13,-5l-18 0 0 36 18 0c5,0 10,-3 13,-5 3,-3 5,-8 5,-13l0 0 0 3 0 0 0 0 0 -3zm95 -18l0 118 -31 0 0 -118 -31 0 0 -28 93 0 0 28 -31 0 0 0 0 0 0 0 0 0 0 0z"/>
</symbol>
<symbol id="Fm13-168-0" viewBox="23951 -3642 3618 285">
 <polygon class="fil12" points="27569,-3357 27569,-3642 23951,-3642 23951,-3357 "/>
</symbol>
<symbol id="Символ23" viewBox="147370 -30018 931 1650">
 <polygon class="fil13" points="148301,-30018 147370,-30018 147370,-28368 148301,-28368 "/>
</symbol>
<symbol id="Fm4-190-0" viewBox="55224 -21480 372 656">
 <polygon class="fil14" points="55224,-20824 55596,-20824 55596,-21480 55224,-21480 "/>
</symbol>
<symbol id="Fm0-1115-0" viewBox="3883 -1267 3618 159">
 <polygon class="fil10" points="3883,-1108 5794,-1108 5794,-1267 3883,-1267 "/>
 <polygon class="fil10" points="5794,-1108 7501,-1108 7501,-1267 5794,-1267 "/>
 <path class="fil11" d="M4104 -1171l0 12 18 0 0 11 -18 0 0 23 -12 0 0 -57 33 0 0 11 -21 0 0 0 0 0 0 0 0 0zm28 46l0 -57 33 0 0 11 -21 0 0 12 18 0 0 11 -18 0 0 12 21 0 0 11 -33 0 0 0 0 0 0 0 0 0zm41 0l0 -57 33 0 0 11 -21 0 0 12 18 0 0 11 -18 0 0 12 21 0 0 11 -33 0 0 0 0 0 0 0 0 0zm64 -33c0,-2 0,-4 0,-5 0,-2 -1,-3 -1,-4 -1,-1 -1,-2 -3,-3 -1,-1 -3,-1 -4,-1l-5 0 0 35 5 0c3,0 5,-1 7,-3 1,-2 2,-4 2,-7l0 -14 0 0 -1 0 0 0 0 0zm-5 -24c4,0 7,1 10,2 3,2 5,4 7,7 1,2 1,5 1,7 0,3 0,7 0,9 0,5 0,9 0,13 0,4 -1,7 -2,9 -1,2 -2,4 -3,5 -1,1 -3,2 -4,3 -2,1 -3,1 -5,2 -2,0 -4,1 -5,1l-17 0 0 -57 18 0 0 0 0 -1 0 0 0 0zm26 57l0 -57 33 0 0 11 -21 0 0 12 18 0 0 11 -18 0 0 12 21 0 0 11 -33 0 0 0 0 0 0 0 0 0zm65 0l-7 -22 -5 0 0 22 -12 0 0 -57 18 0c3,0 5,0 7,1 2,1 4,2 5,3 2,1 3,3 4,5 1,2 2,5 2,7 0,4 -1,7 -2,9 -2,3 -4,5 -7,7l9 25 -13 0 0 0 0 0 0 0 0 0zm1 -41c0,-2 -1,-4 -2,-5 -1,-1 -3,-2 -5,-2l-7 0 0 13 7 0c2,0 4,-1 5,-2 1,-1 2,-3 2,-5l0 1 0 0 0 0zm74 26c-1,5 -3,8 -7,10 -4,3 -7,4 -12,4 -4,0 -7,-1 -8,-2 -3,-1 -5,-3 -5,-5 -2,-2 -3,-4 -4,-7 -1,-3 -1,-5 -1,-7l0 -20c0,-2 0,-5 1,-7 1,-2 2,-4 3,-5 2,-2 4,-4 5,-5 3,-1 5,-2 8,-2 3,0 5,0 7,1 2,1 4,2 5,3 2,1 3,3 4,5 1,2 2,4 2,5l-11 4c0,-1 0,-1 -1,-2 0,-1 -1,-2 -1,-2 -1,-1 -1,-1 -2,-2 -1,0 -2,-1 -3,-1 -1,0 -2,0 -3,1 -1,0 -2,1 -2,2 -1,1 -1,1 -1,2 0,1 0,2 0,2l0 21c0,2 0,4 2,5 1,2 3,2 5,2 2,0 3,-1 5,-2 1,-1 2,-3 2,-5l11 4 0 0 0 2 0 0 0 0zm42 -5c0,3 0,5 -1,7 -1,2 -2,5 -4,5 -2,2 -4,3 -5,4 -2,1 -5,1 -7,1 -4,0 -7,-1 -8,-2 -3,-1 -5,-3 -5,-5 -2,-2 -3,-4 -4,-7 -1,-3 -1,-5 -1,-7l0 -20c0,-2 0,-5 1,-7 1,-2 2,-4 4,-5 2,-2 4,-4 5,-5 3,-1 5,-2 8,-2 3,0 5,1 8,2 3,1 5,3 5,5 2,2 3,4 4,5 1,2 1,5 1,7l0 21 0 0 -1 2 0 0zm-12 -22c0,-1 0,-1 0,-2 0,-1 -1,-2 -1,-2 -1,-1 -1,-1 -2,-2 -1,0 -2,-1 -3,-1 -1,0 -2,0 -3,1 -1,0 -2,1 -2,2 -1,1 -1,1 -1,2 0,1 0,2 0,2l0 21c0,2 1,4 2,5 1,2 3,2 5,2 2,0 3,-1 5,-2 1,-1 2,-3 2,-5l0 -22 0 0 -2 0 0 0zm50 40l-10 -19 -7 -12 0 0 0 31 -12 0 0 -57 10 0 9 17 7 14 0 0 0 -30 12 0 0 57 -10 0 0 0 0 -1 0 0 0 0zm55 -14c-1,5 -3,8 -7,10 -4,3 -7,4 -12,4 -4,0 -7,-1 -8,-2 -3,-1 -5,-3 -5,-5 -2,-2 -3,-4 -4,-7 -1,-3 -1,-5 -1,-7l0 -20c0,-2 0,-5 1,-7 1,-2 2,-4 3,-5 2,-2 4,-4 5,-5 3,-1 5,-2 8,-2 3,0 5,0 7,1 2,1 4,2 5,3 2,1 3,3 4,5 1,2 2,4 2,5l-11 4c0,-1 0,-1 -1,-2 0,-1 -1,-2 -1,-2 -1,-1 -1,-1 -2,-2 -1,0 -2,-1 -3,-1 -1,0 -2,0 -3,1 -1,0 -2,1 -2,2 -1,1 -1,1 -1,2 0,1 0,2 0,2l0 21c0,2 0,4 2,5 1,2 3,2 5,2 2,0 3,-1 5,-2 1,-1 2,-3 2,-5l11 4 0 0 0 2 0 0 0 0zm7 14l0 -57 33 0 0 11 -21 0 0 12 18 0 0 11 -18 0 0 12 21 0 0 11 -33 0 0 0 0 0 0 0 0 0zm76 -38c0,3 0,5 -1,7 -1,2 -2,4 -4,5 -2,2 -4,3 -5,4 -2,1 -5,1 -7,1l-7 0 0 21 -12 0 0 -57 18 0c3,0 5,0 7,1 2,1 5,2 5,4 2,2 3,4 4,5 1,2 1,5 1,8l0 0 0 0zm-12 0c0,-3 -1,-5 -2,-5 -1,-1 -3,-2 -5,-2l-7 0 0 14 7 0c2,0 4,-1 5,-2 1,-1 2,-3 2,-5l0 0 0 1 0 0 0 0zm37 -7l0 46 -12 0 0 -46 -12 0 0 -11 36 0 0 11 -12 0 0 0 0 0 0 0 0 0z"/>
</symbol>
<symbol id="Fm0-20-0" viewBox="4125 -29526 27237 30700">
 <polygon class="fil15" points="25145,-29526 4144,-29526 4144,-19706 25145,-19706 "/>
 <polygon class="fil16" points="17298,-27786 10859,-27786 10842,-29526 19406,-29526 19406,-27786 "/>
 <polygon class="fil17" points="31362,-25024 25621,-25024 25621,-4023 31362,-4023 "/>
 <polygon class="fil18" points="4144,1174 25145,1174 25145,-8345 4144,-8345 "/>
 <polygon class="fil19" points="25629,-25024 19878,-25024 19878,-4023 25629,-4023 "/>
 <polygon class="fil20" points="9866,-25024 4125,-25024 4125,-4023 9866,-4023 "/>
 <polygon class="fil11" points="5627,-326 24622,-326 24622,-27578 5627,-27578 "/>
 <line class="fil9 str1" x1="5627" y1="-27472" x2="5627" y2= "-379" />
 <line class="fil9 str1" x1="5733" y1="-326" x2="24569" y2= "-326" />
 <line class="fil9 str1" x1="24622" y1="-432" x2="24622" y2= "-27525" />
 <line class="fil9 str1" x1="24516" y1="-27578" x2="5680" y2= "-27578" />
 <path class="fil9 str2" d="M5627 -326l0 0zm18996 0l0 0zm0 -27252l0 0zm-18996 0l0 0z"/>
 <polygon class="fil21" points="5623,175 6123,175 6123,-325 5623,-325 "/>
</symbol>
<symbol id="Символ2" viewBox="52706 189 9312 930">
 <polygon class="fil11" points="52706,1119 62017,1119 62017,189 52706,189 "/>
</symbol>
<symbol id="Символ22" viewBox="58207 -21619 9312 695">
 <polygon class="fil22" points="58207,-20924 67519,-20924 67519,-21619 58207,-21619 "/>
</symbol>
<symbol id="Fm0-908-0" viewBox="4625 -20865 28258 21857">
 <polygon class="fil23" points="4625,992 32882,992 32882,-596 4625,-596 "/>
 <polygon class="fil23" points="32080,-6345 31818,-6417 31818,-6447 32122,-6534 32122,-6504 31855,-6431 32122,-6356 32122,-6333 31855,-6258 32122,-6185 32122,-6156 31818,-6242 31818,-6272 "/>
 <polygon class="fil23" points="32080,-5950 31818,-6022 31818,-6052 32122,-6139 32122,-6110 31855,-6036 32122,-5961 32122,-5938 31855,-5863 32122,-5790 32122,-5761 31818,-5847 31818,-5877 "/>
 <polygon class="fil23" points="32080,-5555 31818,-5627 31818,-5657 32122,-5744 32122,-5715 31855,-5641 32122,-5566 32122,-5543 31855,-5468 32122,-5395 32122,-5366 31818,-5452 31818,-5482 "/>
 <path class="fil23" d="M31854 -5339c0,11 -9,21 -20,21 -11,0 -21,-10 -21,-21 0,-11 10,-20 21,-20 10,0 20,9 20,20z"/>
 <path class="fil23" d="M32127 -5115c0,91 -67,155 -157,155 -91,0 -157,-64 -157,-155 0,-91 67,-155 157,-155 91,0 157,64 157,155zm-47 0c0,-62 -47,-101 -110,-101 -62,0 -110,39 -110,101 0,61 47,101 110,101 63,0 110,-40 110,-101z"/>
 <polygon class="fil23" points="32040,-4855 31818,-4855 31818,-4908 32122,-4908 32122,-4854 31907,-4698 32122,-4698 32122,-4645 31818,-4645 31818,-4696 "/>
 <polygon class="fil23" points="32076,-4508 32076,-4600 32122,-4600 32122,-4362 32076,-4362 32076,-4454 31818,-4454 31818,-4508 "/>
 <path class="fil23" d="M31877 -4154l0 -144 -58 -22 0 -58 304 119 0 67 -304 119 0 -58 58 -22zm47 -129l0 114 154 -57 -154 -57z"/>
 <path class="fil23" d="M31932 -3934l0 -53 -114 0 0 -53 304 0 0 134c0,60 -39,99 -95,99 -54,0 -83,-36 -89,-72l-119 74 0 -61 114 -67zm144 20l0 -73 -97 0 0 73c0,30 19,52 48,52 29,0 48,-22 48,-52z"/>
 <polygon class="fil23" points="32122,-3701 31818,-3701 31818,-3754 32122,-3754 "/>
 <path class="fil23" d="M32127 -3495c0,91 -67,155 -157,155 -91,0 -157,-64 -157,-155 0,-91 67,-155 157,-155 91,0 157,64 157,155zm-47 0c0,-62 -47,-101 -110,-101 -62,0 -110,39 -110,101 0,61 47,101 110,101 63,0 110,-40 110,-101z"/>
 <polygon class="fil23" points="31947,-3208 31916,-3235 31818,-3235 31818,-3288 32122,-3288 32122,-3235 31977,-3235 32122,-3116 32122,-3050 31979,-3173 31818,-3040 31818,-3106 "/>
 <polygon class="fil23" points="32040,-2952 31818,-2952 31818,-3005 32122,-3005 32122,-2950 31907,-2795 32122,-2795 32122,-2742 31818,-2742 31818,-2793 "/>
 <polygon class="fil23" points="32122,-2624 31818,-2624 31818,-2677 32122,-2677 "/>
 <polygon class="fil23" points="32122,-2559 32122,-2351 32076,-2351 32076,-2506 31997,-2506 31997,-2354 31950,-2354 31950,-2506 31818,-2506 31818,-2559 "/>
 <polygon class="fil23" points="32122,-2303 32122,-2095 32076,-2095 32076,-2250 31997,-2250 31997,-2098 31950,-2098 31950,-2250 31865,-2250 31865,-2095 31818,-2095 31818,-2303 "/>
 <path class="fil23" d="M31854 -2023c0,11 -9,21 -20,21 -11,0 -21,-10 -21,-21 0,-11 10,-20 21,-20 10,0 20,9 20,20z"/>
 <path class="fil23" d="M31970 -1946c93,0 157,68 157,153 0,49 -21,86 -54,112l-14 -22c26,-19 44,-52 44,-90 0,-71 -54,-126 -134,-126 -78,0 -134,55 -134,126 0,37 18,71 44,90l-14 22c-33,-27 -54,-62 -54,-112 0,-85 64,-153 157,-153z"/>
 <path class="fil23" d="M32127 -1493c0,89 -68,148 -157,148 -89,0 -157,-59 -157,-148 0,-89 68,-148 157,-148 89,0 157,58 157,148zm-24 0c0,-74 -56,-120 -134,-120 -77,0 -134,46 -134,120 0,73 57,120 134,120 77,0 134,-47 134,-120z"/>
 <polygon class="fil23" points="32088,-1023 31818,-1134 31818,-1144 32088,-1255 31818,-1255 31818,-1281 32122,-1281 32122,-1242 31870,-1139 32122,-1036 32122,-996 31818,-996 31818,-1023 "/>
 <path class="fil23" d="M32269 -10455l20 -20c-91,-91 -216,-147 -354,-147 -138,0 -263,56 -354,147 -91,91 -147,216 -147,354 0,138 56,263 147,354 91,91 216,147 354,147 138,0 263,-56 354,-147 91,-91 147,-216 147,-354 0,-138 -56,-263 -147,-354l-20 20 -20 20c81,81 130,192 130,315 0,123 -50,234 -130,315 -81,81 -192,131 -315,131 -123,0 -234,-50 -315,-131 -81,-81 -131,-192 -131,-315 0,-123 50,-234 131,-315 81,-81 192,-131 315,-131 123,0 234,50 315,131l20 -20z"/>
 <polygon class="fil23" points="31788,-10352 31731,-10331 31731,-10387 31850,-10431 31850,-10144 31788,-10144 "/>
 <path class="fil23" d="M32092 -10293c31,12 48,38 48,68 0,51 -45,85 -107,85 -61,0 -107,-35 -107,-85 0,-30 17,-57 48,-68l0 -1c-25,-10 -39,-32 -39,-58 0,-45 43,-79 98,-79 55,0 98,34 98,79 0,26 -14,48 -39,58l0 1zm-16 64c0,-23 -19,-39 -43,-39 -24,0 -43,17 -43,39 0,22 18,39 43,39 25,0 43,-16 43,-39zm-5 -117c0,-19 -16,-34 -37,-34 -21,0 -37,14 -37,34 0,20 17,34 37,34 21,0 37,-14 37,-34z"/>
 <path class="fil23" d="M31872 -9964c31,12 48,38 48,68 0,51 -45,85 -107,85 -61,0 -107,-35 -107,-85 0,-30 17,-57 48,-68l0 -1c-25,-10 -39,-32 -39,-58 0,-45 43,-79 98,-79 55,0 98,34 98,79 0,26 -14,48 -39,58l0 1zm-16 64c0,-23 -19,-39 -43,-39 -24,0 -43,17 -43,39 0,22 18,39 43,39 25,0 43,-16 43,-39zm-5 -117c0,-19 -16,-34 -37,-34 -21,0 -37,14 -37,34 0,20 17,34 37,34 21,0 37,-14 37,-34z"/>
 <path class="fil23" d="M31998 -9815l67 -108 0 -1c-7,2 -15,4 -24,4 -43,0 -87,-33 -87,-87 0,-55 45,-95 105,-95 57,0 105,36 105,96 0,32 -14,62 -34,94l-60 96 -72 0zm102 -193c0,-21 -17,-42 -43,-42 -23,0 -43,17 -43,41 0,22 17,41 43,41 25,0 43,-18 43,-40z"/>
 <path class="fil24" d="M6022 173l204 0 0 -44 -125 0c76,-57 124,-104 124,-156 0,-56 -48,-87 -102,-87 -39,0 -79,15 -104,45l29 33c18,-20 43,-34 76,-34 26,0 51,14 51,43 0,41 -43,77 -152,160l0 39zm248 -141c0,71 34,146 113,146 79,0 113,-75 113,-146 0,-71 -34,-146 -113,-146 -79,0 -113,75 -113,146zm176 0c0,54 -17,102 -63,102 -46,0 -63,-48 -63,-102 0,-54 17,-102 63,-102 46,0 63,48 63,102zm89 141l204 0 0 -44 -125 0c76,-57 124,-104 124,-156 0,-56 -48,-87 -102,-87 -39,0 -79,15 -104,45l29 33c18,-20 43,-34 76,-34 26,0 51,14 51,43 0,41 -43,77 -152,160l0 39zm248 -141c0,71 34,146 113,146 79,0 113,-75 113,-146 0,-71 -34,-146 -113,-146 -79,0 -113,75 -113,146zm176 0c0,54 -17,102 -63,102 -46,0 -63,-48 -63,-102 0,-54 17,-102 63,-102 46,0 63,48 63,102zm80 58l102 0 0 -38 -102 0 0 38zm135 83l204 0 0 -44 -125 0c76,-57 124,-104 124,-156 0,-56 -48,-87 -102,-87 -39,0 -79,15 -104,45l29 33c18,-20 43,-34 76,-34 26,0 51,14 51,43 0,41 -43,77 -152,160l0 39zm248 -141c0,71 34,146 113,146 79,0 113,-75 113,-146 0,-71 -34,-146 -113,-146 -79,0 -113,75 -113,146zm176 0c0,54 -17,102 -63,102 -46,0 -63,-48 -63,-102 0,-54 17,-102 63,-102 46,0 63,48 63,102zm89 141l204 0 0 -44 -125 0c76,-57 124,-104 124,-156 0,-56 -48,-87 -102,-87 -39,0 -79,15 -104,45l29 33c18,-20 43,-34 76,-34 26,0 51,14 51,43 0,41 -43,77 -152,160l0 39zm312 0l50 0 0 -282 -43 0 -81 82 29 30 46 -48 0 218z"/>
 <path class="fil24" d="M8216 56c0,74 53,122 127,122 34,0 69,-12 98,-40l-17 -14c-25,22 -52,32 -80,32 -63,0 -102,-41 -102,-101 0,-90 64,-147 129,-147 36,0 70,14 89,49l23 -11c-22,-39 -61,-61 -111,-61 -79,0 -157,67 -157,170zm475 117l26 0 -53 -282 -30 0 -178 282 29 0 43 -69 150 0 13 69zm-47 -258l30 167 -135 0 104 -167zm154 258l25 0 58 -260 92 0 5 -22 -209 0 -5 22 92 0 -58 260zm347 0l26 0 -53 -282 -30 0 -178 282 29 0 43 -69 150 0 13 69zm-47 -258l30 167 -135 0 104 -167zm114 258l161 0 5 -22 -137 0 58 -260 -24 0 -62 282zm219 -117c0,79 57,122 127,122 86,0 156,-74 156,-170 0,-79 -57,-122 -127,-122 -86,0 -157,74 -157,170zm257 -47c0,86 -61,147 -129,147 -56,0 -102,-35 -102,-101 0,-86 60,-147 128,-147 56,0 102,35 102,101zm66 47c0,71 50,122 127,122 40,0 76,-16 105,-44l22 -101 -131 0 -5 22 107 0 -15 68c-19,18 -46,34 -82,34 -62,0 -102,-39 -102,-101 0,-86 62,-147 129,-147 38,0 73,16 90,47l22 -11c-21,-35 -58,-58 -109,-58 -85,0 -158,71 -158,170zm6491 117l25 0 58 -260 92 0 5 -22 -209 0 -5 22 92 0 -58 260zm370 0l25 0 62 -282 -25 0 -28 126 -179 0 28 -126 -24 0 -62 282 24 0 30 -134 179 0 -30 134zm94 0l179 0 4 -22 -155 0 25 -112 152 0 5 -22 -152 0 23 -105 155 0 5 -22 -179 0 -62 282z"/>
 <path class="fil24" d="M17053 173l193 0 9 -44 -144 0 17 -78 141 0 10 -44 -141 0 16 -73 144 0 10 -44 -193 0 -62 282zm442 0l25 0 27 -121 148 -162 -31 0 -126 139 -65 -139 -27 0 77 162 -27 121zm180 -117c0,79 57,122 127,122 86,0 156,-74 156,-170 0,-79 -57,-122 -127,-122 -86,0 -157,74 -157,170zm257 -47c0,86 -61,147 -129,147 -56,0 -102,-35 -102,-101 0,-86 60,-147 128,-147 56,0 102,35 102,101zm72 77c0,56 39,92 104,92 72,0 102,-44 118,-113l38 -174 -25 0 -38 174c-13,57 -38,92 -94,92 -51,0 -80,-30 -80,-73 0,-8 2,-16 3,-19l38 -174 -25 0 -38 174c-1,6 -2,14 -2,22zm580 87l24 0 62 -282 -24 0 -55 245 -122 -245 -25 0 -62 282 24 0 55 -249 123 249zm94 0l179 0 4 -22 -155 0 25 -112 152 0 5 -22 -152 0 23 -105 155 0 5 -22 -179 0 -62 282zm239 0l179 0 4 -22 -155 0 25 -112 152 0 5 -22 -152 0 23 -105 155 0 5 -22 -179 0 -62 282zm389 -282l-88 0 -62 282 90 0c118,0 175,-84 175,-162 0,-70 -52,-120 -115,-120zm-56 260l-65 0 53 -238 64 0c54,0 94,42 94,99 0,75 -56,139 -146,139zm635 22l27 0 143 -282 -28 0 -123 248 -14 -248 -22 0 -124 248 -13 -248 -27 0 19 282 27 0 121 -243 14 243zm354 0l25 0 62 -282 -25 0 -28 126 -179 0 28 -126 -24 0 -62 282 24 0 30 -134 179 0 -30 134zm94 0l179 0 4 -22 -155 0 25 -112 152 0 5 -22 -152 0 23 -105 155 0 5 -22 -179 0 -62 282zm441 0l24 0 62 -282 -24 0 -55 245 -122 -245 -25 0 -62 282 24 0 55 -249 123 249zm287 0l25 0 27 -121 148 -162 -31 0 -126 139 -65 -139 -27 0 77 162 -27 121zm180 -117c0,79 57,122 127,122 86,0 156,-74 156,-170 0,-79 -57,-122 -127,-122 -86,0 -157,74 -157,170zm257 -47c0,86 -61,147 -129,147 -56,0 -102,-35 -102,-101 0,-86 60,-147 128,-147 56,0 102,35 102,101zm72 77c0,56 39,92 104,92 72,0 102,-44 118,-113l38 -174 -25 0 -38 174c-13,57 -38,92 -94,92 -51,0 -80,-30 -80,-73 0,-8 2,-16 3,-19l38 -174 -25 0 -38 174c-1,6 -2,14 -2,22zm580 87l24 0 62 -282 -24 0 -55 245 -122 -245 -25 0 -62 282 24 0 55 -249 123 249zm94 0l179 0 4 -22 -155 0 25 -112 152 0 5 -22 -152 0 23 -105 155 0 5 -22 -179 0 -62 282zm239 0l179 0 4 -22 -155 0 25 -112 152 0 5 -22 -152 0 23 -105 155 0 5 -22 -179 0 -62 282zm389 -282l-88 0 -62 282 90 0c118,0 175,-84 175,-162 0,-70 -52,-120 -115,-120zm-56 260l-65 0 53 -238 64 0c54,0 94,42 94,99 0,75 -56,139 -146,139zm515 22l26 0 -53 -282 -30 0 -178 282 29 0 43 -69 150 0 13 69zm-47 -258l30 167 -135 0 104 -167zm218 258l193 0 9 -44 -144 0 17 -78 141 0 10 -44 -141 0 16 -73 144 0 10 -44 -193 0 -62 282zm362 -107c50,0 90,-40 90,-90 0,-50 -40,-90 -90,-90 -50,0 -90,40 -90,90 0,50 40,90 89,90zm0 -168c43,0 79,35 79,78 0,43 -36,78 -79,78 -43,0 -78,-36 -78,-78 0,-44 35,-78 78,-78zm15 130l15 0 -19 -41c16,0 34,-14 34,-35 0,-18 -14,-27 -29,-27l-39 0 -22 103 13 0 9 -41 20 0 18 41zm-1 -91c10,0 18,6 18,17 0,12 -11,21 -23,21l-29 0 8 -38 26 0z"/>
 <polyline class="fil9 str3" points="32519,-20850 31115,-19987 31115,-596 "/>
</symbol>
<symbol id="Fm14-170-0" viewBox="56852 -10561 370 656">
 <polygon class="fil25" points="57222,-10561 56852,-10561 56852,-9905 57222,-9905 "/>
</symbol>
<symbol id="Символ10" viewBox="61692 -10299 9312 731">
 <polygon class="fil26" points="71004,-9568 71004,-10299 61692,-10299 61692,-9568 "/>
</symbol>
<symbol id="Символ16" viewBox="39639 -3941 269 1650">
 <polygon class="fil10" points="39639,-3307 39908,-3307 39908,-3941 39639,-3941 "/>
 <polygon class="fil27" points="39639,-2291 39785,-2291 39785,-2774 39639,-2774 "/>
 <polygon class="fil27" points="39669,-2291 39785,-2291 39785,-2774 39669,-2774 "/>
 <path class="fil28" d="M39707 -2311l0 -10 -13 0 0 -18 -8 0 0 18 -5 0 0 -18 -8 0 0 25 35 0 0 0 -3 3 0 0 0 0zm0 -30l0 -30 -8 0 0 18 -5 0 0 -18 -8 0 0 18 -5 0 0 -18 -8 0 0 30 35 0 0 0 -3 0 -3 0 3 0 0 0zm0 -33l0 -30 -8 0 0 18 -5 0 0 -18 -8 0 0 18 -5 0 0 -18 -8 0 0 30 35 0 0 0 -3 0 -3 0 3 0 0 0zm0 -33l0 -13c0,-13 -5,-20 -18,-20 -13,0 -18,5 -18,20l0 13 35 0 0 0 3 0 -3 0zm-8 -10l-18 0 0 -5c0,-10 3,-10 8,-10 5,0 8,3 8,10l0 5 0 0 3 0 3 0 0 0 -3 0zm8 -25l0 -30 -8 0 0 18 -5 0 0 -18 -8 0 0 18 -5 0 0 -18 -8 0 0 30 35 0 0 0 -3 0 -3 0 3 0 0 0zm0 -53l0 -10 -13 5c-3,-5 -5,-5 -10,-5 -5,0 -13,3 -13,13l0 18 35 0 0 -10 -10 0 0 -5 10 -5 0 0 0 0 0 3 0 0 0 -3zm-18 13l-8 0 0 -8c0,-5 0,-5 5,-5 5,0 5,3 5,5l0 8 0 0 0 0 -3 0 0 0zm18 -48c0,-8 -3,-13 -5,-18l-5 5c3,3 5,5 5,8 0,8 -5,8 -8,8 -5,0 -10,-3 -10,-8 0,-5 3,-5 5,-8l-5 -5c-5,5 -5,8 -5,13 0,13 5,18 18,18 13,0 18,-5 18,-18l0 0 -3 3 -3 3 0 0 -3 0zm0 -35c0,-10 -5,-18 -18,-18 -13,0 -18,8 -18,18 0,10 5,18 18,18 13,0 18,-8 18,-18zm-8 0c0,8 -5,8 -10,8 -5,0 -10,-3 -10,-8 0,-8 5,-8 10,-8 5,0 10,3 10,8zm8 -23l0 -10 -20 0 20 -13 0 -8 -35 0 0 10 18 0 -18 13 0 10 35 0 0 0 0 -3 0 -3 0 0 0 3zm0 -55c0,-8 -3,-13 -5,-18l-5 5c3,3 5,5 5,8 0,8 -5,8 -8,8 -5,0 -10,-3 -10,-8 0,-5 3,-5 5,-8l-5 -5c-5,5 -5,8 -5,13 0,13 5,18 18,18 13,0 18,-5 18,-18l0 0 -3 3 -3 3 0 0 -3 0zm0 -18l0 -30 -8 0 0 18 -5 0 0 -18 -8 0 0 18 -5 0 0 -18 -8 0 0 30 35 0 0 0 -3 0 -3 0 3 0 0 0zm0 -33l0 -10 -10 0 0 -8c0,-13 -5,-18 -13,-18 -5,0 -13,3 -13,13l0 18 35 0 0 0 0 3 0 3 0 0 0 0zm-18 -10l-8 0 0 -8c0,-5 3,-5 5,-5 5,0 5,3 5,5l0 8 0 0 -3 0 0 0zm18 -35l0 -10 -25 0 0 -13 -8 0 0 33 8 0 0 -13 25 0 0 0 0 3 0 3 0 0 0 -3z"/>
 <path class="fil28" d="M39755 -2371l0 -5 -8 -3 0 -18 8 -3 0 -5 -35 13 0 5 35 13 0 0 0 -3 0 0 0 3 0 3zm-13 -10l-18 -5 18 -5 0 13 0 0 0 -3 0 0 0 0zm13 -48l0 -5 -18 13 -18 -13 0 5 13 10 0 5 -13 0 0 5 35 0 0 -5 -18 0 0 -5 18 -13 0 0 0 0 0 3zm0 -23c0,-5 -3,-10 -5,-13l-5 5c3,3 5,5 5,10 0,8 -5,13 -13,13 -8,0 -13,-5 -13,-13 0,-5 3,-5 5,-10l-5 -5c-3,5 -5,8 -5,13 0,10 5,18 18,18 13,0 18,-5 18,-18l0 0zm0 -18l0 -25 -5 0 0 18 -13 0 0 -18 -5 0 0 18 -10 0 0 -18 -5 0 0 25 35 0 0 0 3 0 0 0zm0 -45c0,-5 -3,-10 -5,-13l-5 5c3,3 5,5 5,10 0,8 -5,13 -13,13 -8,0 -13,-5 -13,-13 0,-5 3,-5 5,-10l-5 -5c-3,5 -5,8 -5,13 0,10 5,18 18,18 13,0 18,-5 18,-18l0 0zm0 -30c0,-5 -3,-10 -5,-13l-5 5c3,3 5,5 5,10 0,8 -5,13 -13,13 -8,0 -13,-5 -13,-13 0,-5 3,-5 5,-10l-5 -5c-3,5 -5,8 -5,13 0,10 5,18 18,18 13,0 18,-5 18,-18l0 0zm0 -23c0,-5 -3,-5 -5,-8l-30 -13 0 5 23 10 -23 10 0 5 25 -13 3 3c3,0 3,3 3,5l0 3 5 0c0,0 0,-3 0,-5l0 0 0 3 3 -3 -3 0 0 -3zm0 -18l0 -5 -8 -3 0 -18 8 -3 0 -5 -35 13 0 5 35 13 0 0 0 -3 0 0 0 3 0 3zm-13 -10l-18 -5 18 -5 0 13 0 0 0 -3 0 0 0 0zm13 -25l0 -5 -13 0 0 -10c0,-8 -5,-13 -13,-13 -5,0 -10,5 -10,13l0 18 35 0 0 0 0 -3 0 0 0 0 0 0zm-18 -5l-13 0 0 -10c0,-5 3,-8 5,-8 5,0 5,3 5,8l0 10 0 0 3 0 0 0 0 0zm18 -25l0 -18c0,-8 -5,-13 -10,-13 -5,0 -10,5 -10,13l0 10 -13 0 0 5 35 0 0 0 -3 3 0 0 0 0 0 0zm-5 -5l-13 0 0 -10c0,-5 3,-8 5,-8 5,0 5,3 5,8l0 10 0 0 3 0 0 0 0 0zm5 -25l0 -5 -35 0 0 5 35 0z"/>
 <polygon class="fil27" points="39639,-2794 39785,-2794 39785,-3277 39639,-3277 "/>
 <polygon class="fil27" points="39669,-2794 39785,-2794 39785,-3277 39669,-3277 "/>
 <path class="fil28" d="M39707 -2814l0 -10 -13 0 0 -18 -8 0 0 18 -5 0 0 -18 -8 0 0 25 35 0 0 0 -3 3 0 0 0 0zm0 -30l0 -30 -8 0 0 18 -5 0 0 -18 -8 0 0 18 -5 0 0 -18 -8 0 0 30 35 0 0 0 -3 0 -3 0 3 0 0 0zm0 -33l0 -30 -8 0 0 18 -5 0 0 -18 -8 0 0 18 -5 0 0 -18 -8 0 0 30 35 0 0 0 -3 0 -3 0 3 0 0 0zm0 -33l0 -13c0,-13 -5,-20 -18,-20 -13,0 -18,5 -18,20l0 13 35 0 0 0 3 0 -3 0zm-8 -10l-18 0 0 -5c0,-10 3,-10 8,-10 5,0 8,3 8,10l0 5 0 0 3 0 3 0 0 0 -3 0zm8 -25l0 -30 -8 0 0 18 -5 0 0 -18 -8 0 0 18 -5 0 0 -18 -8 0 0 30 35 0 0 0 -3 0 -3 0 3 0 0 0zm0 -53l0 -10 -13 5c-3,-5 -5,-5 -10,-5 -5,0 -13,3 -13,13l0 18 35 0 0 -10 -10 0 0 -5 10 -5 0 0 0 0 0 3 0 0 0 -3zm-18 13l-8 0 0 -8c0,-5 0,-5 5,-5 5,0 5,3 5,5l0 8 0 0 0 0 -3 0 0 0zm18 -48c0,-8 -3,-13 -5,-18l-5 5c3,3 5,5 5,8 0,8 -5,8 -8,8 -5,0 -10,-3 -10,-8 0,-5 3,-5 5,-8l-5 -5c-5,5 -5,8 -5,13 0,13 5,18 18,18 13,0 18,-5 18,-18l0 0 -3 3 -3 3 0 0 -3 0zm0 -35c0,-10 -5,-18 -18,-18 -13,0 -18,8 -18,18 0,10 5,18 18,18 13,0 18,-8 18,-18zm-8 0c0,8 -5,8 -10,8 -5,0 -10,-3 -10,-8 0,-8 5,-8 10,-8 5,0 10,3 10,8zm8 -23l0 -10 -20 0 20 -13 0 -8 -35 0 0 10 18 0 -18 13 0 10 35 0 0 0 0 -3 0 -3 0 0 0 3zm0 -55c0,-8 -3,-13 -5,-18l-5 5c3,3 5,5 5,8 0,8 -5,8 -8,8 -5,0 -10,-3 -10,-8 0,-5 3,-5 5,-8l-5 -5c-5,5 -5,8 -5,13 0,13 5,18 18,18 13,0 18,-5 18,-18l0 0 -3 3 -3 3 0 0 -3 0zm0 -18l0 -30 -8 0 0 18 -5 0 0 -18 -8 0 0 18 -5 0 0 -18 -8 0 0 30 35 0 0 0 -3 0 -3 0 3 0 0 0zm0 -33l0 -10 -10 0 0 -8c0,-13 -5,-18 -13,-18 -5,0 -13,3 -13,13l0 18 35 0 0 0 0 3 0 3 0 0 0 0zm-18 -10l-8 0 0 -8c0,-5 3,-5 5,-5 5,0 5,3 5,5l0 8 0 0 -3 0 0 0zm18 -35l0 -10 -25 0 0 -13 -8 0 0 33 8 0 0 -13 25 0 0 0 0 3 0 3 0 0 0 -3z"/>
 <path class="fil28" d="M39755 -2940l0 -5 -18 13 -18 -13 0 5 13 10 0 5 -13 0 0 5 35 0 0 -5 -18 0 0 -5 18 -13 0 0 0 0 0 3zm0 -8l0 -5 -8 -3 0 -18 8 -3 0 -5 -35 13 0 5 35 13 0 0 0 -3 0 0 0 3 0 3zm-13 -10l-18 -5 18 -5 0 13 0 0 0 -3 0 0 0 0zm13 -33l0 -5 -30 0 0 -13 -5 0 0 30 5 0 0 -13 30 0 0 -3 0 3 0 0zm0 -30c0,-5 -3,-5 -5,-8l-30 -13 0 5 23 10 -23 10 0 5 25 -13 3 3c3,0 3,3 3,5l0 3 5 0c0,0 0,-3 0,-5l0 0 0 3 3 -3 -3 0 0 -3zm0 -25l0 -48 -35 0 0 5 30 0 0 18 -30 0 0 5 30 0 0 18 -30 0 0 5 35 0 0 3 0 -3 0 -3zm0 -75l0 -5 -18 13 -18 -13 0 5 13 10 0 5 -13 0 0 5 35 0 0 -5 -18 0 0 -5 18 -13 0 0 0 0 0 3zm0 -8l0 -5 -30 -20 30 0 0 -5 -35 0 0 5 25 20 -25 0 0 5 35 0 0 -3 0 0 0 3z"/>
 <path class="fil11" d="M39707 -3314l0 -10 -13 0 0 -18 -8 0 0 18 -5 0 0 -18 -8 0 0 25 35 0 0 0 -3 3 0 0 0 0zm0 -30l0 -30 -8 0 0 18 -5 0 0 -18 -8 0 0 18 -5 0 0 -18 -8 0 0 30 35 0 0 0 -3 0 -3 0 3 0 0 0zm0 -33l0 -30 -8 0 0 18 -5 0 0 -18 -8 0 0 18 -5 0 0 -18 -8 0 0 30 35 0 0 0 -3 0 -3 0 3 0 0 0zm0 -33l0 -13c0,-13 -5,-20 -18,-20 -13,0 -18,5 -18,20l0 13 35 0 0 0 3 0 -3 0zm-8 -10l-18 0 0 -5c0,-10 3,-10 8,-10 5,0 8,3 8,10l0 5 0 0 3 0 3 0 0 0 -3 0zm8 -25l0 -30 -8 0 0 18 -5 0 0 -18 -8 0 0 18 -5 0 0 -18 -8 0 0 30 35 0 0 0 -3 0 -3 0 3 0 0 0zm0 -53l0 -10 -13 5c-3,-5 -5,-5 -10,-5 -5,0 -13,3 -13,13l0 18 35 0 0 -10 -10 0 0 -5 10 -5 0 0 0 0 0 3 0 0 0 -3zm-18 13l-8 0 0 -8c0,-5 0,-5 5,-5 5,0 5,3 5,5l0 8 0 0 0 0 -3 0 0 0zm18 -48c0,-8 -3,-13 -5,-18l-5 5c3,3 5,5 5,8 0,8 -5,8 -8,8 -5,0 -10,-3 -10,-8 0,-5 3,-5 5,-8l-5 -5c-5,5 -5,8 -5,13 0,13 5,18 18,18 13,0 18,-5 18,-18l0 0 -3 3 -3 3 0 0 -3 0zm0 -35c0,-10 -5,-18 -18,-18 -13,0 -18,8 -18,18 0,10 5,18 18,18 13,0 18,-8 18,-18zm-8 0c0,8 -5,8 -10,8 -5,0 -10,-3 -10,-8 0,-8 5,-8 10,-8 5,0 10,3 10,8zm8 -23l0 -10 -20 0 20 -13 0 -8 -35 0 0 10 18 0 -18 13 0 10 35 0 0 0 0 -3 0 -3 0 0 0 3zm0 -55c0,-8 -3,-13 -5,-18l-5 5c3,3 5,5 5,8 0,8 -5,8 -8,8 -5,0 -10,-3 -10,-8 0,-5 3,-5 5,-8l-5 -5c-5,5 -5,8 -5,13 0,13 5,18 18,18 13,0 18,-5 18,-18l0 0 -3 3 -3 3 0 0 -3 0zm0 -18l0 -30 -8 0 0 18 -5 0 0 -18 -8 0 0 18 -5 0 0 -18 -8 0 0 30 35 0 0 0 -3 0 -3 0 3 0 0 0zm0 -33l0 -10 -10 0 0 -8c0,-13 -5,-18 -13,-18 -5,0 -13,3 -13,13l0 18 35 0 0 0 0 3 0 3 0 0 0 0zm-18 -10l-8 0 0 -8c0,-5 3,-5 5,-5 5,0 5,3 5,5l0 8 0 0 -3 0 0 0zm18 -35l0 -10 -25 0 0 -13 -8 0 0 33 8 0 0 -13 25 0 0 0 0 3 0 3 0 0 0 -3z"/>
 <path class="fil11" d="M39755 -3415c0,-5 -3,-5 -5,-8l-30 -13 0 5 23 10 -23 10 0 5 25 -13 3 3c3,0 3,3 3,5l0 3 5 0c0,0 0,-3 0,-5l0 0 0 3 3 -3 -3 0 0 -3zm8 -23l0 -5 -8 0 0 -25 8 0 0 -5 -13 0 0 5 -30 0 0 30 25 0c3,0 5,0 5,3l0 3 13 0 0 0 0 -3 0 0 0 -3zm-13 -8c0,0 -3,0 -5,0l-23 0 0 -20 25 0 0 20 0 0 3 0zm5 -33l0 -5 -30 -20 30 0 0 -5 -35 0 0 5 25 20 -25 0 0 5 35 0 0 -3 0 0 0 3zm0 -33c0,0 0,-3 0,-3 0,-5 -3,-5 -5,-5l-25 0 0 -20 30 0 0 -5 -35 0 0 30 25 0c3,0 5,0 5,3l0 3 5 0 0 0 0 0 0 0 0 -3zm0 -40l0 -5 -30 -20 30 0 0 -5 -35 0 0 5 25 20 -25 0 0 5 35 0 0 -3 0 0 0 3zm8 -83l0 -5 -13 0 0 5 -30 0 0 5 30 0 0 18 -30 0 0 5 30 0 0 18 -30 0 0 5 35 0 0 -48 8 0 0 0 0 3 0 -3 0 -3zm-8 -5l0 -5 -8 -3 0 -18 8 -3 0 -5 -35 13 0 5 35 13 0 0 0 -3 0 0 0 3 0 3zm-13 -10l-18 -5 18 -5 0 13 0 0 0 -3 0 0 0 0z"/>
</symbol>
<symbol id="Fm16-174-0" viewBox="23272 -3469 3618 271">
 <polygon class="fil29" points="23272,-3198 26889,-3198 26889,-3469 23272,-3469 "/>
</symbol>
<symbol id="Символ7" viewBox="49441 -20013 9309 695">
 <polygon class="fil30" points="49441,-19318 58750,-19318 58750,-20013 49441,-20013 "/>
</symbol>
<symbol id="Символ15" viewBox="58207 -20047 9312 695">
 <polygon class="fil31" points="58207,-19352 67519,-19352 67519,-20047 58207,-20047 "/>
</symbol>
<symbol id="Символ19" viewBox="59913 -20892 9312 734">
 <polygon class="fil32" points="59913,-20159 69225,-20159 69225,-20892 59913,-20892 "/>
</symbol>
<symbol id="Fm18-178-0" viewBox="23951 -4272 3618 285">
 <polygon class="fil33" points="27569,-3987 27569,-4272 23951,-4272 23951,-3987 "/>
</symbol>
<symbol id="Fm19-180-0" viewBox="56913 -12026 370 656">
 <polygon class="fil34" points="57284,-12026 56913,-12026 56913,-11370 57284,-11370 "/>
</symbol>
<symbol id="Fm2-182-0" viewBox="19191 -8054 3618 270">
 <polygon class="fil35" points="19191,-7784 22809,-7784 22809,-8054 19191,-8054 "/>
</symbol>
<symbol id="Символ4" viewBox="59944 -8214 9309 695">
 <polygon class="fil36" points="59944,-7519 69253,-7519 69253,-8214 59944,-8214 "/>
</symbol>
<symbol id="Символ21" viewBox="60915 -11075 9312 870">
 <polygon class="fil37" points="60915,-10205 70226,-10205 70226,-11075 60915,-11075 "/>
</symbol>
<symbol id="Fm5-192-0" viewBox="22842 -10081 3618 339">
 <polygon class="fil38" points="26460,-9742 26460,-10081 22842,-10081 22842,-9742 "/>
</symbol>
<symbol id="Fm11-164-0" viewBox="22597 -8677 3618 270">
 <polygon class="fil39" points="22597,-8407 26215,-8407 26215,-8677 22597,-8677 "/>
</symbol>
<symbol id="Символ12" viewBox="58838 -27204 9312 870">
 <polygon class="fil40" points="58838,-26334 68149,-26334 68149,-27204 58838,-27204 "/>
</symbol>
<symbol id="Fm1-882-0" viewBox="27301 -161 4826 483">
 <polygon class="fil11" points="27301,322 32127,322 32127,-161 27301,-161 "/>
</symbol>
<symbol id="Fm3-188-0" viewBox="23260 -8388 3618 285">
 <polygon class="fil41" points="23260,-8103 26878,-8103 26878,-8388 23260,-8388 "/>
</symbol>
<symbol id="Символ9" viewBox="142973 -57373 933 1650">
 <polygon class="fil42" points="143906,-55723 143906,-57373 142973,-57373 142973,-55723 "/>
</symbol>
<symbol id="Fm6-194-0" viewBox="22597 -8067 3618 270">
 <polygon class="fil43" points="22597,-7797 26215,-7797 26215,-8067 22597,-8067 "/>
</symbol>
<symbol id="Fm12-166-0" viewBox="19858 -3460 3618 270">
 <polygon class="fil44" points="19858,-3190 23476,-3190 23476,-3460 19858,-3460 "/>
</symbol>
<symbol id="Символ6" viewBox="58838 -25319 9312 872">
 <polygon class="fil45" points="68149,-24446 68149,-25319 58838,-25319 58838,-24446 "/>
</symbol>
<symbol id="Символ14" viewBox="59913 -22514 9312 734">
 <polygon class="fil46" points="59913,-21780 69225,-21780 69225,-22514 59913,-22514 "/>
</symbol>
<symbol id="Символ17" viewBox="143120 -53794 936 1650">
 <polygon class="fil47" points="143120,-52144 144056,-52144 144056,-53794 143120,-53794 "/>
</symbol>
<symbol id="Символ24" viewBox="59929 -9784 9312 697">
 <polygon class="fil48" points="69241,-9784 59929,-9784 59929,-9086 69241,-9086 "/>
</symbol>
<symbol id="Fm7-196-0" viewBox="19191 -8665 3618 271">
 <polygon class="fil49" points="19191,-8393 22809,-8393 22809,-8665 19191,-8665 "/>
</symbol>
<symbol id="Fm1-1169-0" viewBox="13945 -1657 107 656">
 <polygon class="fil10" points="13945,-1405 14052,-1405 14052,-1657 13945,-1657 "/>
 <polygon class="fil27" points="13945,-1001 14003,-1001 14003,-1193 13945,-1193 "/>
 <polygon class="fil27" points="13957,-1001 14003,-1001 14003,-1193 13957,-1193 "/>
 <path class="fil28" d="M13972 -1010l0 -4 -5 0 0 -7 -3 0 0 7 -2 0 0 -7 -3 0 0 10 14 0 0 0 -1 1 0 0zm0 -12l0 -12 -3 0 0 7 -2 0 0 -7 -3 0 0 7 -2 0 0 -7 -3 0 0 12 14 0 0 0 -1 0 -1 0 1 0zm0 -13l0 -12 -3 0 0 7 -2 0 0 -7 -3 0 0 7 -2 0 0 -7 -3 0 0 12 14 0 0 0 -1 0 -1 0 1 0zm0 -13l0 -5c0,-5 -2,-8 -7,-8 -5,0 -7,2 -7,8l0 5 14 0 0 0 1 0zm-3 -4l-7 0 0 -2c0,-4 1,-4 3,-4 2,0 3,1 3,4l0 2 0 0 1 0 1 0 0 0zm3 -10l0 -12 -3 0 0 7 -2 0 0 -7 -3 0 0 7 -2 0 0 -7 -3 0 0 12 14 0 0 0 -1 0 -1 0 1 0zm0 -21l0 -4 -5 2c-1,-2 -2,-2 -4,-2 -2,0 -5,1 -5,5l0 7 14 0 0 -4 -4 0 0 -2 4 -2 0 0 0 0 0 1 0 0zm-7 5l-3 0 0 -3c0,-2 0,-2 2,-2 2,0 2,1 2,2l0 3 0 0 0 0 -1 0zm7 -19c0,-3 -1,-5 -2,-7l-2 2c1,1 2,2 2,3 0,3 -2,3 -3,3 -2,0 -4,-1 -4,-3 0,-2 1,-2 2,-3l-2 -2c-2,2 -2,3 -2,5 0,5 2,7 7,7 5,0 7,-2 7,-7l0 0 -1 1 -1 1 0 0zm0 -14c0,-4 -2,-7 -7,-7 -5,0 -7,3 -7,7 0,4 2,7 7,7 5,0 7,-3 7,-7zm-3 0c0,3 -2,3 -4,3 -2,0 -4,-1 -4,-3 0,-3 2,-3 4,-3 2,0 4,1 4,3zm3 -9l0 -4 -8 0 8 -5 0 -3 -14 0 0 4 7 0 -7 5 0 4 14 0 0 0 0 -1 0 -1 0 0zm0 -22c0,-3 -1,-5 -2,-7l-2 2c1,1 2,2 2,3 0,3 -2,3 -3,3 -2,0 -4,-1 -4,-3 0,-2 1,-2 2,-3l-2 -2c-2,2 -2,3 -2,5 0,5 2,7 7,7 5,0 7,-2 7,-7l0 0 -1 1 -1 1 0 0zm0 -7l0 -12 -3 0 0 7 -2 0 0 -7 -3 0 0 7 -2 0 0 -7 -3 0 0 12 14 0 0 0 -1 0 -1 0 1 0zm0 -13l0 -4 -4 0 0 -3c0,-5 -2,-7 -5,-7 -2,0 -5,1 -5,5l0 7 14 0 0 0 0 1 0 1 0 0zm-7 -4l-3 0 0 -3c0,-2 1,-2 2,-2 2,0 2,1 2,2l0 3 0 0 -1 0zm7 -14l0 -4 -10 0 0 -5 -3 0 0 13 3 0 0 -5 10 0 0 0 0 1 0 1 0 0z"/>
 <path class="fil28" d="M13991 -1034l0 -2 -3 -1 0 -7 3 -1 0 -2 -14 5 0 2 14 5 0 0 0 -1 0 0 0 1zm-5 -4l-7 -2 7 -2 0 5 0 0 0 -1 0 0 0 0zm5 -19l0 -2 -7 5 -7 -5 0 2 5 4 0 2 -5 0 0 2 14 0 0 -2 -7 0 0 -2 7 -5 0 0 0 0zm0 -9c0,-2 -1,-4 -2,-5l-2 2c1,1 2,2 2,4 0,3 -2,5 -5,5 -3,0 -5,-2 -5,-5 0,-2 1,-2 2,-4l-2 -2c-1,2 -2,3 -2,5 0,4 2,7 7,7 5,0 7,-2 7,-7l0 0zm0 -7l0 -10 -2 0 0 7 -5 0 0 -7 -2 0 0 7 -4 0 0 -7 -2 0 0 10 14 0 0 0 1 0 0 0zm0 -18c0,-2 -1,-4 -2,-5l-2 2c1,1 2,2 2,4 0,3 -2,5 -5,5 -3,0 -5,-2 -5,-5 0,-2 1,-2 2,-4l-2 -2c-1,2 -2,3 -2,5 0,4 2,7 7,7 5,0 7,-2 7,-7l0 0zm0 -12c0,-2 -1,-4 -2,-5l-2 2c1,1 2,2 2,4 0,3 -2,5 -5,5 -3,0 -5,-2 -5,-5 0,-2 1,-2 2,-4l-2 -2c-1,2 -2,3 -2,5 0,4 2,7 7,7 5,0 7,-2 7,-7l0 0zm0 -9c0,-2 -1,-2 -2,-3l-12 -5 0 2 9 4 -9 4 0 2 10 -5 1 1c1,0 1,1 1,2l0 1 2 0c0,0 0,-1 0,-2l0 0 0 1 1 -1 -1 0zm0 -7l0 -2 -3 -1 0 -7 3 -1 0 -2 -14 5 0 2 14 5 0 0 0 -1 0 0 0 1zm-5 -4l-7 -2 7 -2 0 5 0 0 0 -1 0 0 0 0zm5 -10l0 -2 -5 0 0 -4c0,-3 -2,-5 -5,-5 -2,0 -4,2 -4,5l0 7 14 0 0 0 0 -1 0 0 0 0zm-7 -2l-5 0 0 -4c0,-2 1,-3 2,-3 2,0 2,1 2,3l0 4 0 0 1 0 0 0 0 0zm7 -10l0 -7c0,-3 -2,-5 -4,-5 -2,0 -4,2 -4,5l0 4 -5 0 0 2 14 0 0 0 -1 1 0 0 0 0zm-2 -2l-5 0 0 -4c0,-2 1,-3 2,-3 2,0 2,1 2,3l0 4 0 0 1 0 0 0 0 0zm2 -10l0 -2 -14 0 0 2 14 0z"/>
 <polygon class="fil27" points="13945,-1201 14003,-1201 14003,-1394 13945,-1394 "/>
 <polygon class="fil27" points="13957,-1201 14003,-1201 14003,-1394 13957,-1394 "/>
 <path class="fil28" d="M13972 -1210l0 -4 -5 0 0 -7 -3 0 0 7 -2 0 0 -7 -3 0 0 10 14 0 0 0 -1 1 0 0zm0 -12l0 -12 -3 0 0 7 -2 0 0 -7 -3 0 0 7 -2 0 0 -7 -3 0 0 12 14 0 0 0 -1 0 -1 0 1 0zm0 -13l0 -12 -3 0 0 7 -2 0 0 -7 -3 0 0 7 -2 0 0 -7 -3 0 0 12 14 0 0 0 -1 0 -1 0 1 0zm0 -13l0 -5c0,-5 -2,-8 -7,-8 -5,0 -7,2 -7,8l0 5 14 0 0 0 1 0zm-3 -4l-7 0 0 -2c0,-4 1,-4 3,-4 2,0 3,1 3,4l0 2 0 0 1 0 1 0 0 0zm3 -10l0 -12 -3 0 0 7 -2 0 0 -7 -3 0 0 7 -2 0 0 -7 -3 0 0 12 14 0 0 0 -1 0 -1 0 1 0zm0 -21l0 -4 -5 2c-1,-2 -2,-2 -4,-2 -2,0 -5,1 -5,5l0 7 14 0 0 -4 -4 0 0 -2 4 -2 0 0 0 0 0 1 0 0zm-7 5l-3 0 0 -3c0,-2 0,-2 2,-2 2,0 2,1 2,2l0 3 0 0 0 0 -1 0zm7 -19c0,-3 -1,-5 -2,-7l-2 2c1,1 2,2 2,3 0,3 -2,3 -3,3 -2,0 -4,-1 -4,-3 0,-2 1,-2 2,-3l-2 -2c-2,2 -2,3 -2,5 0,5 2,7 7,7 5,0 7,-2 7,-7l0 0 -1 1 -1 1 0 0zm0 -14c0,-4 -2,-7 -7,-7 -5,0 -7,3 -7,7 0,4 2,7 7,7 5,0 7,-3 7,-7zm-3 0c0,3 -2,3 -4,3 -2,0 -4,-1 -4,-3 0,-3 2,-3 4,-3 2,0 4,1 4,3zm3 -9l0 -4 -8 0 8 -5 0 -3 -14 0 0 4 7 0 -7 5 0 4 14 0 0 0 0 -1 0 -1 0 0zm0 -22c0,-3 -1,-5 -2,-7l-2 2c1,1 2,2 2,3 0,3 -2,3 -3,3 -2,0 -4,-1 -4,-3 0,-2 1,-2 2,-3l-2 -2c-2,2 -2,3 -2,5 0,5 2,7 7,7 5,0 7,-2 7,-7l0 0 -1 1 -1 1 0 0zm0 -7l0 -12 -3 0 0 7 -2 0 0 -7 -3 0 0 7 -2 0 0 -7 -3 0 0 12 14 0 0 0 -1 0 -1 0 1 0zm0 -13l0 -4 -4 0 0 -3c0,-5 -2,-7 -5,-7 -2,0 -5,1 -5,5l0 7 14 0 0 0 0 1 0 1 0 0zm-7 -4l-3 0 0 -3c0,-2 1,-2 2,-2 2,0 2,1 2,2l0 3 0 0 -1 0zm7 -14l0 -4 -10 0 0 -5 -3 0 0 13 3 0 0 -5 10 0 0 0 0 1 0 1 0 0z"/>
 <path class="fil28" d="M13991 -1259l0 -2 -7 5 -7 -5 0 2 5 4 0 2 -5 0 0 2 14 0 0 -2 -7 0 0 -2 7 -5 0 0 0 0zm0 -3l0 -2 -3 -1 0 -7 3 -1 0 -2 -14 5 0 2 14 5 0 0 0 -1 0 0 0 1zm-5 -4l-7 -2 7 -2 0 5 0 0 0 -1 0 0 0 0zm5 -13l0 -2 -12 0 0 -5 -2 0 0 12 2 0 0 -5 12 0 0 -1 0 1zm0 -12c0,-2 -1,-2 -2,-3l-12 -5 0 2 9 4 -9 4 0 2 10 -5 1 1c1,0 1,1 1,2l0 1 2 0c0,0 0,-1 0,-2l0 0 0 1 1 -1 -1 0zm0 -10l0 -19 -14 0 0 2 12 0 0 7 -12 0 0 2 12 0 0 7 -12 0 0 2 14 0 0 1 0 -1zm0 -30l0 -2 -7 5 -7 -5 0 2 5 4 0 2 -5 0 0 2 14 0 0 -2 -7 0 0 -2 7 -5 0 0 0 0zm0 -3l0 -2 -12 -8 12 0 0 -2 -14 0 0 2 10 8 -10 0 0 2 14 0 0 -1 0 0z"/>
 <path class="fil11" d="M13972 -1409l0 -4 -5 0 0 -7 -3 0 0 7 -2 0 0 -7 -3 0 0 10 14 0 0 0 -1 1 0 0zm0 -12l0 -12 -3 0 0 7 -2 0 0 -7 -3 0 0 7 -2 0 0 -7 -3 0 0 12 14 0 0 0 -1 0 -1 0 1 0zm0 -13l0 -12 -3 0 0 7 -2 0 0 -7 -3 0 0 7 -2 0 0 -7 -3 0 0 12 14 0 0 0 -1 0 -1 0 1 0zm0 -13l0 -5c0,-5 -2,-8 -7,-8 -5,0 -7,2 -7,8l0 5 14 0 0 0 1 0zm-3 -4l-7 0 0 -2c0,-4 1,-4 3,-4 2,0 3,1 3,4l0 2 0 0 1 0 1 0 0 0zm3 -10l0 -12 -3 0 0 7 -2 0 0 -7 -3 0 0 7 -2 0 0 -7 -3 0 0 12 14 0 0 0 -1 0 -1 0 1 0zm0 -21l0 -4 -5 2c-1,-2 -2,-2 -4,-2 -2,0 -5,1 -5,5l0 7 14 0 0 -4 -4 0 0 -2 4 -2 0 0 0 0 0 1 0 0zm-7 5l-3 0 0 -3c0,-2 0,-2 2,-2 2,0 2,1 2,2l0 3 0 0 0 0 -1 0zm7 -19c0,-3 -1,-5 -2,-7l-2 2c1,1 2,2 2,3 0,3 -2,3 -3,3 -2,0 -4,-1 -4,-3 0,-2 1,-2 2,-3l-2 -2c-2,2 -2,3 -2,5 0,5 2,7 7,7 5,0 7,-2 7,-7l0 0 -1 1 -1 1 0 0zm0 -14c0,-4 -2,-7 -7,-7 -5,0 -7,3 -7,7 0,4 2,7 7,7 5,0 7,-3 7,-7zm-3 0c0,3 -2,3 -4,3 -2,0 -4,-1 -4,-3 0,-3 2,-3 4,-3 2,0 4,1 4,3zm3 -9l0 -4 -8 0 8 -5 0 -3 -14 0 0 4 7 0 -7 5 0 4 14 0 0 0 0 -1 0 -1 0 0zm0 -22c0,-3 -1,-5 -2,-7l-2 2c1,1 2,2 2,3 0,3 -2,3 -3,3 -2,0 -4,-1 -4,-3 0,-2 1,-2 2,-3l-2 -2c-2,2 -2,3 -2,5 0,5 2,7 7,7 5,0 7,-2 7,-7l0 0 -1 1 -1 1 0 0zm0 -7l0 -12 -3 0 0 7 -2 0 0 -7 -3 0 0 7 -2 0 0 -7 -3 0 0 12 14 0 0 0 -1 0 -1 0 1 0zm0 -13l0 -4 -4 0 0 -3c0,-5 -2,-7 -5,-7 -2,0 -5,1 -5,5l0 7 14 0 0 0 0 1 0 1 0 0zm-7 -4l-3 0 0 -3c0,-2 1,-2 2,-2 2,0 2,1 2,2l0 3 0 0 -1 0zm7 -14l0 -4 -10 0 0 -5 -3 0 0 13 3 0 0 -5 10 0 0 0 0 1 0 1 0 0z"/>
 <path class="fil11" d="M13991 -1448c0,-2 -1,-2 -2,-3l-12 -5 0 2 9 4 -9 4 0 2 10 -5 1 1c1,0 1,1 1,2l0 1 2 0c0,0 0,-1 0,-2l0 0 0 1 1 -1 -1 0zm3 -9l0 -2 -3 0 0 -10 3 0 0 -2 -5 0 0 2 -12 0 0 12 10 0c1,0 2,0 2,1l0 1 5 0 0 0 0 -1 0 0zm-5 -3c0,0 -1,0 -2,0l-9 0 0 -8 10 0 0 8 0 0 1 0zm2 -13l0 -2 -12 -8 12 0 0 -2 -14 0 0 2 10 8 -10 0 0 2 14 0 0 -1 0 0zm0 -13c0,0 0,-1 0,-1 0,-2 -1,-2 -2,-2l-10 0 0 -8 12 0 0 -2 -14 0 0 12 10 0c1,0 2,0 2,1l0 1 2 0 0 0 0 0 0 0zm0 -16l0 -2 -12 -8 12 0 0 -2 -14 0 0 2 10 8 -10 0 0 2 14 0 0 -1 0 0zm3 -33l0 -2 -5 0 0 2 -12 0 0 2 12 0 0 7 -12 0 0 2 12 0 0 7 -12 0 0 2 14 0 0 -19 3 0 0 0 0 1 0 -1zm-3 -2l0 -2 -3 -1 0 -7 3 -1 0 -2 -14 5 0 2 14 5 0 0 0 -1 0 0 0 1zm-5 -4l-7 -2 7 -2 0 5 0 0 0 -1 0 0 0 0z"/>
</symbol>
<symbol id="Fm21-186-0" viewBox="23266 -4078 3618 271">
 <polygon class="fil50" points="26884,-4078 23266,-4078 23266,-3807 26884,-3807 "/>
</symbol>
<symbol id="Fm15-172-0" viewBox="23649 -4546 3618 338">
 <polygon class="fil51" points="23649,-4208 27267,-4208 27267,-4546 23649,-4546 "/>
</symbol>
<symbol id="Символ1" viewBox="147217 -26331 931 1647">
 <polygon class="fil52" points="148147,-26331 147217,-26331 147217,-24684 148147,-24684 "/>
</symbol>
<symbol id="Символ3" viewBox="49441 -21587 9309 697">
 <polygon class="fil53" points="49441,-20890 58750,-20890 58750,-21587 49441,-21587 "/>
</symbol>
<symbol id="Fm20-184-0" viewBox="23649 -5281 3618 338">
 <polygon class="fil54" points="23649,-4942 27267,-4942 27267,-5281 23649,-5281 "/>
</symbol>
<symbol id="Символ18" viewBox="61692 -8677 9312 731">
 <polygon class="fil55" points="71004,-7946 71004,-8677 61692,-8677 61692,-7946 "/>
</symbol>
 <g id="Слой_x0020_1">
  <metadata id="CorelCorpID_0Corel-Layer"/>
  <g id="_757352496">
   <g>
    <path class="fil56" d="M4110 601c0,0 -464,-595 -1509,-595 0,0 0,595 0,595 0,0 1509,0 1509,0 0,0 0,0 0,0z"/>
    <path class="fil56" d="M944 747c0,0 464,595 1509,595 0,0 0,-595 0,-595 0,0 -1509,0 -1509,0 0,0 0,0 0,0z"/>
    <polygon class="fil57" points="399,600 296,600 107,101 105,101 114,600 0,600 0,5 183,5 345,447 349,447 507,5 695,5 695,600 580,600 590,98 586,98 "/>
    <path class="fil57" d="M892 218l0 160c0,118 23,129 137,129 104,0 140,-14 140,-129l0 -160c2,-112 -38,-120 -140,-120 -123,0 -135,25 -137,120zm391 0l0 160c0,191 -74,227 -254,227 -184,0 -252,-32 -252,-227l0 -160c0,-185 63,-218 252,-218 171,0 254,26 254,218z"/>
    <path class="fil57" d="M1628 306c84,0 105,-17 105,-104 0,-84 -15,-99 -97,-99l-159 0 0 203 151 0zm-151 98l0 197 -114 0 0 -595 304 0c130,3 180,44 180,179 0,88 -5,152 -106,168l0 3c81,7 101,51 101,135l0 111 -114 0 0 -111c0,-50 -21,-85 -75,-86l-175 0z"/>
    <path class="fil57" d="M2171 92l-2 0 -102 309 206 0 -102 -309zm-129 395l-37 113 -118 0 198 -595 168 0 202 595 -116 0 -39 -113 -257 0z"/>
    <polygon class="fil57" points="2714,1343 2600,1343 2600,748 2714,748 "/>
    <path class="fil57" d="M3173 947l0 -33c0,-69 -27,-74 -127,-74 -115,0 -135,19 -135,136l0 132c1,119 15,142 135,142 92,0 133,-3 133,-88l0 -33 114 0 0 39c2,179 -100,173 -248,179 -210,8 -247,-61 -249,-235l0 -137c0,-191 74,-233 249,-233 148,0 233,1 241,171l0 33 -114 0z"/>
    <polygon class="fil57" points="3478,994 3757,994 3757,1088 3478,1088 3478,1246 3774,1246 3774,1343 3364,1343 3364,748 3772,748 3772,845 3478,845 "/>
    <path class="fil57" d="M4025 782l15 0c5,0 8,-3 8,-10 0,-7 -3,-10 -8,-10l-15 0 0 20zm16 -32c12,0 21,9 21,22 0,10 -4,17 -11,19l15 30 -16 0 -13 -27 -13 0 0 27 -15 0 0 -72 31 0zm-59 37c0,30 24,54 54,54 30,0 54,-24 54,-54 0,-30 -24,-54 -54,-54 -30,0 -54,24 -54,54zm125 0c0,39 -32,71 -71,71 -39,0 -71,-32 -71,-71 0,-39 32,-71 71,-71 39,0 71,32 71,71z"/>
   </g>
   <path class="fil57" d="M5274 524c0,-24 4,-44 11,-61 5,-12 13,-23 22,-32 9,-10 20,-17 31,-21 15,-6 32,-9 51,-9 35,0 63,11 84,33 21,22 31,52 31,90 0,38 -10,68 -31,90 -21,22 -49,32 -83,32 -35,0 -63,-11 -84,-32 -21,-21 -31,-51 -31,-89l-1 -1zm49 -2c0,27 6,47 19,61 12,14 28,21 47,21 19,0 35,-7 47,-21 12,-14 18,-34 18,-62 0,-27 -6,-47 -18,-61 -12,-13 -28,-20 -47,-20 -20,0 -36,7 -48,20 -12,14 -18,34 -18,61l0 1zm358 91l0 28 -47 0 0 -28c-38,-1 -65,-11 -80,-28 -16,-17 -23,-39 -23,-65 0,-27 8,-49 24,-66 16,-17 43,-26 79,-27l0 -23 47 0 0 23c38,1 64,11 80,28 16,17 24,39 24,65 0,26 -8,48 -23,65 -16,17 -42,26 -80,28l-1 0zm0 -40c13,0 23,-2 32,-6 9,-4 15,-10 19,-17 4,-7 6,-17 6,-31 0,-34 -19,-51 -57,-51l0 105 0 0zm-47 0l0 -105c-20,0 -35,4 -44,13 -9,9 -13,23 -13,41 0,34 19,51 57,51zm189 -169l45 0 0 158 96 -158 48 0 0 237 -45 0 0 -155 -96 155 -48 0 0 -237zm238 0l48 0 0 197 92 0 0 -197 48 0 0 197 20 0 0 92 -40 0 0 -52 -168 0 0 -237 0 0zm241 0l45 0 0 158 96 -158 48 0 0 237 -45 0 0 -155 -96 155 -48 0 0 -237zm450 237l-52 0 -20 -54 -95 0 -20 54 -51 0 92 -237 51 0 95 237zm-88 -94l-33 -88 -32 88 65 0 0 0zm134 -143l166 0 0 237 -48 0 0 -197 -71 0 0 101c0,29 -1,49 -3,61 -2,11 -7,20 -14,27 -7,6 -19,10 -35,10 -6,0 -16,-1 -31,-2l0 -37 11 0c10,0 17,-1 20,-4 3,-3 5,-9 5,-20l0 -41 0 -135 0 0zm216 0l48 0 0 95 64 0c30,0 52,7 65,21 13,14 20,31 20,51 0,16 -4,30 -12,41 -8,11 -17,19 -28,23 -10,4 -26,6 -45,6l-112 0 0 -237 0 0zm48 197l46 0c15,0 26,-1 31,-2 6,-1 11,-5 16,-10 5,-5 7,-11 7,-19 0,-11 -4,-19 -12,-24 -8,-5 -21,-8 -40,-8l-49 0 0 62 1 1zm189 40l0 -237 48 0 0 93 93 0 0 -93 48 0 0 237 -48 0 0 -103 -93 0 0 103 -48 0zm240 -237l48 0 0 95 64 0c17,0 31,2 43,7 12,5 22,13 30,25 8,12 12,25 12,41 0,16 -4,30 -13,41 -8,12 -18,19 -28,23 -10,4 -25,6 -45,6l-112 0 0 -237 1 -1zm48 197l47 0c15,0 25,-1 31,-2 6,-1 11,-5 16,-10 5,-5 7,-11 7,-19 0,-10 -4,-18 -11,-24 -7,-5 -21,-8 -40,-8l-49 0 0 62 -1 1zm177 -197l48 0 0 237 -48 0 0 -237zm98 0l45 0 0 158 96 -158 48 0 0 237 -45 0 0 -155 -96 155 -48 0 0 -237zm122 -68l22 0c-1,15 -6,26 -15,34 -9,8 -21,13 -35,13 -14,0 -26,-4 -35,-13 -9,-8 -14,-20 -15,-34l22 0c1,8 3,13 8,17 5,4 11,6 20,6 9,0 15,-2 20,-6 5,-4 7,-10 8,-17zm226 68l163 0 0 197 21 0 0 92 -40 0 0 -52 -148 0 0 52 -40 0 0 -92 20 0c10,-20 16,-44 19,-70 3,-27 5,-60 5,-101l0 -25 0 -1zm46 40c0,72 -7,124 -20,157l90 0 0 -157 -70 0zm171 -40l45 0 0 158 96 -158 48 0 0 237 -45 0 0 -155 -96 155 -48 0 0 -237zm254 0l166 0 0 237 -48 0 0 -197 -71 0 0 101c0,29 -1,49 -3,61 -2,11 -7,20 -14,27 -7,6 -19,10 -35,10 -6,0 -16,-1 -31,-2l0 -37 11 0c10,0 17,-1 20,-4 3,-3 5,-9 5,-20l0 -41 0 -135 0 0zm215 237l0 -237 175 0 0 40 -127 0 0 53 118 0 0 40 -118 0 0 64 132 0 0 40 -180 0 0 0zm220 0l0 -237 77 0c29,0 48,1 57,4 14,4 25,11 34,23 9,12 14,27 14,46 0,15 -3,27 -8,37 -5,10 -12,18 -20,23 -8,6 -16,9 -25,11 -11,2 -28,3 -49,3l-31 0 0 89 -48 0 -1 1zm48 -197l0 67 26 0c19,0 31,-1 38,-4 6,-2 11,-6 15,-12 4,-5 5,-11 5,-18 0,-9 -3,-16 -8,-21 -5,-6 -11,-9 -19,-11 -6,-1 -17,-2 -34,-2l-23 0 0 1zm-3833 329l95 0c19,0 33,1 42,2 9,2 17,5 25,10 7,5 13,12 18,20 5,8 7,17 7,28 0,11 -3,21 -9,30 -6,9 -14,16 -24,21 14,4 25,11 33,22 8,10 12,22 12,36 0,11 -2,21 -7,31 -5,10 -12,18 -21,24 -9,6 -19,10 -32,11 -8,1 -27,1 -58,2l-81 0 0 -237 0 0zm48 39l0 55 31 0c19,0 30,0 35,-1 8,-1 15,-4 19,-8 5,-5 7,-11 7,-18 0,-7 -2,-13 -6,-18 -4,-5 -10,-7 -18,-8 -5,-1 -18,-1 -41,-1l-27 0 0 -1zm0 94l0 63 44 0c17,0 28,0 33,-1 7,-1 13,-4 17,-9 4,-5 7,-12 7,-20 0,-7 -2,-13 -5,-18 -3,-5 -8,-9 -15,-11 -7,-2 -21,-3 -42,-3l-39 0 0 -1zm283 103l0 -237 77 0c29,0 48,1 57,4 14,4 25,11 34,23 9,12 14,27 14,46 0,15 -3,27 -8,37 -5,10 -12,18 -20,23 -8,6 -16,9 -25,11 -11,2 -28,3 -49,3l-31 0 0 89 -48 0 -1 1zm48 -197l0 67 26 0c19,0 31,-1 38,-4 6,-2 11,-6 15,-12 4,-5 5,-11 5,-18 0,-9 -3,-16 -8,-21 -5,-6 -11,-9 -19,-11 -6,-1 -17,-2 -34,-2l-23 0 0 1zm158 80c0,-24 4,-44 11,-61 5,-12 13,-23 22,-33 9,-10 20,-17 31,-21 15,-6 32,-9 51,-9 35,0 63,11 84,33 21,22 31,52 31,90 0,38 -10,68 -31,90 -21,22 -49,32 -83,32 -35,0 -63,-11 -84,-32 -21,-21 -31,-51 -31,-89l-1 0zm49 -2c0,27 6,47 19,61 12,14 28,21 47,21 19,0 35,-7 47,-21 12,-14 18,-34 18,-62 0,-27 -6,-47 -18,-61 -12,-13 -28,-20 -47,-20 -20,0 -36,7 -48,20 -12,14 -18,34 -18,61l0 1zm369 31l46 14c-7,26 -19,45 -35,58 -17,13 -37,19 -63,19 -31,0 -57,-11 -78,-32 -20,-21 -30,-51 -30,-88 0,-39 10,-70 31,-92 20,-22 47,-33 80,-33 29,0 52,9 71,26 11,10 19,25 24,44l-47 11c-3,-12 -9,-22 -18,-29 -9,-7 -20,-11 -32,-11 -18,0 -32,6 -43,19 -11,13 -16,33 -16,61 0,30 5,51 16,64 11,13 25,19 42,19 13,0 24,-4 33,-12 9,-8 16,-21 20,-38l-1 0zm239 0l46 14c-7,26 -19,45 -35,58 -17,13 -37,19 -63,19 -31,0 -57,-11 -78,-32 -20,-21 -30,-51 -30,-88 0,-39 10,-70 31,-92 20,-22 47,-33 80,-33 29,0 52,9 71,26 11,10 19,25 24,44l-47 11c-3,-12 -9,-22 -18,-29 -9,-7 -20,-11 -32,-11 -18,0 -32,6 -43,19 -11,13 -16,33 -16,61 0,30 5,51 16,64 11,13 25,19 42,19 13,0 24,-4 33,-12 9,-8 16,-21 20,-38l-1 0zm88 -149l45 0 0 158 96 -158 48 0 0 237 -45 0 0 -155 -96 155 -48 0 0 -237zm238 0l45 0 0 158 96 -158 48 0 0 237 -45 0 0 -155 -96 155 -48 0 0 -237z"/>
   <polygon class="fil57" points="4711,5 4711,1343 4686,1343 4686,5 "/>
  </g>
 </g>
</svg>
